/* XPM */
static char *result[] = {
/* columns rows colors chars-per-pixel */
"32 32 19 1 ",
"  c black",
". c #060515",
"X c #060619",
"o c #381C03",
"O c #151327",
"+ c #131133",
"@ c #19173E",
"# c #432305",
"$ c #512C06",
"% c #562E07",
"& c #61360A",
"* c #66390B",
"= c #814A11",
"- c #905313",
"; c #C56C0C",
": c #D57003",
"> c #A78C63",
", c #B4976B",
"< c None",
/* pixels */
"<<<<<<<<<<<<<<<<<<<<<<<<<<<<<<<<",
"<<<<<<<<<<<<<<<<<<<<<<<<<<<<<<<<",
"<<<<<<<<<<  :::::::   <<<<<<<<<<",
"<<<<<<<<  ::::$$$$:::: <<<<<<<<<",
"<<<<<<< ::::$$====$:::: <<<<<<<<",
"<<<<<< :::$$==::::=$$$:: <<<<<<<",
"<<<<<<::$===:::::#:===$:: <<<<<<",
"<<<<<<-::$::::###::::*::- <<<<<<",
"<<<<<<&-::$==:::::==$::-& <<<<<<",
"<<<<<<&&-::$$$$$$$$$::-&&.<<<<<<",
"<<<<< .O&&-:::::::::-&&..;<<<<<<",
"<<<<< o.O&&&&&&&&&&&&&O.;;<<<<<<",
"<<<<< o:.O&&&&&&&&&&&O.;;><<<<<<",
"<<<<< :::.OOOOOOOOOOO.;;>:<<<<<<",
"<<<< :,::o::::::o:::::;>:: <<<<<",
"<<<< ::,,::::o::oo::::>::: <<<<<",
"<<<< ::,,::::o:::o::::>::: <<<<<",
"<<<< :::,:,:::>>>::>>::::: <<<<<",
"<<<< :::::,,:>>>>>>>>::::o <<<<<",
"<<<<< ::o::,:>>>>>>:>:::o;<<<<<<",
"<<<<< o:o::,:>>>>>>:::::o;<<<<<<",
"<<<<< o::o:::>:::>>::o::o;<<<<<<",
"<<<<< o::o::o::::::::o::oX<<<<<<",
"<<<<< @::o::o::::::::o::X+<<<<<<",
"<<<<< X@::::o::::::::o:XX.<<<<<<",
"<<<<<<XX@:::o:::::::o:XX: <<<<<<",
"<<<<<<o%XX@@::::o::XX+:oo <<<<<<",
"<<<<<< ;.XX@@@@XXXX+OO:: <<<<<<<",
"<<<<<< o;%%XXXXXXXOOoo:o <<<<<<<",
"<<<<<<< o::%::oooo:o::o <<<<<<<<",
"<<<<<<<<<<  o:::::o   <<<<<<<<<<",
"<<<<<<<<<<<<       <<<<<<<<<<<<<"
};
