/* XPM */
static char *result[] = {
/* columns rows colors chars-per-pixel */
"32 32 229 2 ",
"   c #020404",
".  c #0A090B",
"X  c #110E0D",
"o  c #101313",
"O  c #2C0E0A",
"+  c #360B05",
"@  c #3A0A05",
"#  c #3E060D",
"$  c #340B0C",
"%  c #3B0A0A",
"&  c #251D09",
"*  c #2C1B0D",
"=  c #33190A",
"-  c #250F16",
";  c #380913",
":  c #3B0913",
">  c #261C15",
",  c #2C1B1A",
"<  c #3C1614",
"1  c #361C13",
"2  c #3A1A14",
"3  c #3A1519",
"4  c #321C1A",
"5  c #3A1B1B",
"6  c #1E2114",
"7  c #2A230D",
"8  c #292B09",
"9  c #37280D",
"0  c #272715",
"q  c #2C2414",
"w  c #2C241C",
"e  c #332314",
"r  c #382917",
"t  c #32231A",
"y  c #38311D",
"u  c #191B20",
"i  c #361E21",
"p  c #1C2928",
"a  c #2C2523",
"s  c #292727",
"d  c #332524",
"f  c #332A25",
"g  c #382826",
"h  c #2B322B",
"j  c #3C3528",
"k  c #282A35",
"l  c #393936",
"z  c #4B0105",
"x  c #450609",
"c  c #580702",
"v  c #5B0404",
"b  c #54050B",
"n  c #5C040A",
"m  c #5B090B",
"M  c #4E1606",
"N  c #44160C",
"B  c #4C130B",
"V  c #55140B",
"C  c #5D140D",
"Z  c #59180A",
"A  c #570B12",
"S  c #441413",
"D  c #471817",
"F  c #5C1512",
"G  c #581615",
"H  c #640303",
"J  c #6A0303",
"K  c #680609",
"L  c #6C0C0D",
"P  c #740203",
"I  c #7C0303",
"U  c #770903",
"Y  c #7A0805",
"T  c #75050A",
"R  c #7D040B",
"E  c #7C090C",
"W  c #661309",
"Q  c #61150D",
"!  c #6B0810",
"~  c #750611",
"^  c #631212",
"/  c #671718",
"(  c #781C1B",
")  c #45221A",
"_  c #4C3C1D",
"`  c #5A381E",
"'  c #422924",
"]  c #4B3B25",
"[  c #583A29",
"{  c #5A3833",
"}  c #6A2525",
"|  c #6A2A2B",
" . c #792A2B",
".. c #613E21",
"X. c #693939",
"o. c #594123",
"O. c #5E4E35",
"+. c #6A4524",
"@. c #6C462C",
"#. c #664829",
"$. c #644D2E",
"%. c #6B492C",
"&. c #7A4C29",
"*. c #7D572D",
"=. c #644532",
"-. c #6D4735",
";. c #644C33",
":. c #6B4C35",
">. c #6E4539",
",. c #6B4A3A",
"<. c #764A35",
"1. c #615130",
"2. c #765133",
"3. c #7B5639",
"4. c #3D3A43",
"5. c #473C44",
"6. c #514B46",
"7. c #585557",
"8. c #6B4D4A",
"9. c #784949",
"0. c #71524C",
"q. c #645859",
"w. c #795655",
"e. c #686C66",
"r. c #7F6A66",
"t. c #6E726E",
"y. c #6A7673",
"u. c #7C7675",
"i. c #757778",
"p. c #7A737A",
"a. c #840303",
"s. c #8B0203",
"d. c #860906",
"f. c #83040B",
"g. c #8A040B",
"h. c #8C090A",
"j. c #930302",
"k. c #9B0202",
"l. c #93060A",
"z. c #970908",
"x. c #8C0E13",
"c. c #A20202",
"v. c #AC0202",
"b. c #A7090B",
"n. c #B40202",
"m. c #BC020A",
"M. c #821F22",
"N. c #893936",
"B. c #865326",
"V. c #85552D",
"C. c #835A2D",
"Z. c #8B592E",
"A. c #8E4E34",
"S. c #835332",
"D. c #895432",
"F. c #845937",
"G. c #8B5B33",
"H. c #845B3C",
"J. c #8A5B3A",
"K. c #925B35",
"L. c #965835",
"P. c #915B3B",
"I. c #985E3C",
"U. c #8C6534",
"Y. c #956135",
"T. c #9B6235",
"R. c #93643B",
"E. c #9A663D",
"W. c #986A3C",
"Q. c #93713E",
"!. c #A3653C",
"~. c #855C45",
"^. c #945B42",
"/. c #9F5F42",
"(. c #855558",
"). c #946343",
"_. c #9A6746",
"`. c #93614A",
"'. c #A26B41",
"]. c #A66846",
"[. c #A47348",
"{. c #B5744A",
"}. c #AF7256",
"|. c #B97755",
" X c #886966",
".X c #966F70",
"XX c #877B79",
"oX c #947877",
"OX c #878076",
"+X c #7E8C84",
"@X c #868687",
"#X c #8C8682",
"$X c #8B8B8B",
"%X c #998687",
"&X c #928E8D",
"*X c #85948C",
"=X c #92958E",
"-X c #8D8C91",
";X c #988D94",
":X c #8C9495",
">X c #959394",
",X c #9C9996",
"<X c #9A9698",
"1X c #A6898A",
"2X c #A1908A",
"3X c #A59A97",
"4X c #9BA29D",
"5X c #A4A29B",
"6X c #B6A59C",
"7X c #9A98A4",
"8X c #A89DA2",
"9X c #B89CA0",
"0X c #9DA5A3",
"qX c #9AA7A7",
"wX c #A7A6A6",
"eX c #B6A9A6",
"rX c #A4B1AB",
"tX c #B7B5AD",
"yX c #ACAFB1",
"uX c #A8B4B7",
"iX c #BBB9B9",
"pX c #CCADAD",
"aX c #C7B6B3",
"sX c #AFC6BD",
"dX c #C1BBC3",
"fX c #C9C7C8",
"gX c #CCD3D7",
"hX c #D8D5D7",
"jX c #E3D7D5",
/* pixels */
":.;.-.>.;.+.{ k l [ @.$.<.>.:.:.-.:.-.,.1...[ k j [ #.1.-.>.:.+.",
"R.C.Z.J.U.W.2.w ] 2.Z.U.R.Z.C.Z.'.G.K.D.*.&.2.w ] `.J.+.@.S.*._.",
"'.B.L.P._.Y.%.0 _ D.K.Y.G.V.V.G.T.T.L.!.F.B.+.w ] P.I.C.&.Z.L.].",
"^.J.J.)._.^.2.q ] `.I.F.F.F.F.<.3.J._.~.3.+.;.w _ J.L.U.Q.R.E.E.",
"> * = e 2 ) g s f ' ) 1 * * > 0 6 = = e e 9 r s f g D e 7 * * > ",
"e M Z V C W C ^ F C C Q Z V S f t V C F ^ L ^ F ^ ^ ^ ^ C V S s ",
"S T d.T P J U f.a.P P I U P A 1X9.^ P P d.s.a.s.z.s.s.h.g.f.n i ",
"B R s.a.I I a.j.j.a.a.s.s.s. .3XoX/ H P s.s.s.k.n.c.k.c.k.j.K t ",
"B T I I g.l.d.s.M.N.P j.l.~ oX0X,X0.! f.s.M.^.g.k.d.s.c.j.g.H 0 ",
"N n H v J H H H X.jX5X X>. X&X;X8X;X6.q.XXeXpXb H v n H v n z a ",
"s 5 < 1 1 2 i a , &XsXrX,X>X8X7X7X-XwX0XwXuX7.> , 5 4 2 1 1 3 d ",
"d.h.j.j.z.g.n D S r.=XpX1Xu.e.@X@Xu.@X2XeXeXX.a B T T T Y T g.g.",
"v.k.c.n.n.b.K t N { qXXX>X*XtXo e.fXe.5X>X%X: a D f.a.s.j.s.j.c.",
"v.k.j.v.n.n.K q 5 u.:X@X-XqX. s gXt.gXi.@X3X5.s 2 T a.s.k.j.j.k.",
"s.I R a.s.d.m 8.,XqXp.-XfXeX  4.4.. 7.7X:X$X-XXXG E h.z.z.z.j.j.",
"$ % : $ + + .XdXeX4X8Xu.o $X+X  o e.  l =X#X=XtXdXoX@ % x # x % ",
"5 D G F ^ ^ |  X#X>X<Xi.6.  . u X 8X-Xy.:X8XwXtXOX} F F Q F S a ",
"B H J a.s.j.s.I |  XwXi.fX6.l fX. X jX+Xi.<XXX8.( l.j.s.g.Y b t ",
"B L P P s.a.I U U ( 1X@X-XfXhXh o aX8Xy.+X:X0.! P s.j.j.s.a.v q ",
"M T P H P a.U s.z.M.1XqX7Xp.4Xh y.@XXX7X$X4Xw.~ T P P a.I ~ b w ",
"2 b z x z v J K J w.yXuX-X<Xu.@Xi.-X&X;XiX5XXXx H v v v n m z e ",
"i 2 3 5 4 3 3 w q t.fX&X,X#X9XrX:X:X#X2XeXiX5Xt , 4 1 S < 2 3 d ",
"R Y E P J K b e 2 6X9. .( / r.yXuX3X} L } 9.pX6.B K E j.k.z.l.l.",
"a.J I a.I R n w S ~ g.j.s.K { iXaX(.R s.J H m t B f.c.m.n.k.s.k.",
"s.I P a.s.s.m t < s.j.j.a.I K XXeX/ a.j.j.P c t N x.n.m.n.k.s.j.",
"a.R P U g.g.! D A g.d.f.f.P J | (.J a.l.g.R n 5 B f.k.k.b.l.a.g.",
"% ; $ O + x O a 4 % + : # O % O - % + + $ + $ a , % x + + $ $ ; ",
"y [ =.:.+.@.%.O.;.$.1.>.>.o.] r j ` +.=.:.@.@.1.;.#.;.1.$.[ o.s ",
"_ J.].!.|.{.!.U.).E.B.B.I.Q.9.t ] J.G.P./.}.{.!.E.K.K.D.K./.~.0 ",
"o.2.A.].|.|.K.*.H.K.T.Y.!.[.3.s ] H.*.D.A.T.!.Z.V.S.J.P.E./.3.0 ",
"_ 2.S.R.].}.R.*.*.P.R.)._.!.2., [ 2.*.S.S.&.R.`.V.H.J.[.[.I.<.q ",
"h t 9 8 7 * * & * & 0 0 9 ) r a g r 8 q 7 & > > * & * e 8 r g p "
};
