/* XPM */
static char *result[] = {
/* columns rows colors chars-per-pixel */
"32 32 152 2 ",
"   c #1C1A15",
".  c #201C12",
"X  c #221D13",
"o  c #261F10",
"O  c #241E14",
"+  c #2A210D",
"@  c #2C220E",
"#  c #2C230E",
"$  c #2E240F",
"%  c #282011",
"&  c #2A2212",
"*  c #2C2313",
"=  c #2C2413",
"-  c #282116",
";  c #282216",
":  c #2A2317",
">  c #2C2418",
",  c #302510",
"<  c #302610",
"1  c #322611",
"2  c #322711",
"3  c #302615",
"4  c #342812",
"5  c #362913",
"6  c #362A13",
"7  c #352916",
"8  c #382B13",
"9  c #392B13",
"0  c #382C13",
"q  c #382A14",
"w  c #3A2C14",
"e  c #3A2D14",
"r  c #3B2D14",
"t  c #3A2C15",
"y  c #3A2D15",
"u  c #3D2D15",
"i  c #3D2E15",
"p  c #3C2E16",
"a  c #3F2F16",
"s  c #412F16",
"d  c #413016",
"f  c #413116",
"g  c #413017",
"h  c #413117",
"j  c #433217",
"k  c #423317",
"l  c #433317",
"z  c #403018",
"x  c #433118",
"c  c #423218",
"v  c #463318",
"b  c #463418",
"n  c #473519",
"m  c #463618",
"M  c #483519",
"N  c #4A3519",
"B  c #493719",
"V  c #49341A",
"C  c #49361A",
"Z  c #4A361A",
"A  c #4B361B",
"S  c #4C371B",
"D  c #4E371B",
"F  c #4C381A",
"G  c #4E381B",
"H  c #4E391B",
"J  c #4F391B",
"K  c #4E3A1A",
"L  c #4E381C",
"P  c #50371B",
"I  c #503B1B",
"U  c #513B1B",
"Y  c #50381C",
"T  c #50391C",
"R  c #52391C",
"E  c #513A1C",
"W  c #523B1C",
"Q  c #523A1D",
"!  c #533A1D",
"~  c #533B1D",
"^  c #543A1D",
"/  c #543B1E",
"(  c #553B1E",
")  c #533C1C",
"_  c #543C1C",
"`  c #543D1C",
"'  c #553C1D",
"]  c #563D1D",
"[  c #563E1D",
"{  c #563C1E",
"}  c #573D1E",
"|  c #583D1F",
" . c #583E1E",
".. c #593F1E",
"X. c #5A3F1E",
"o. c #5A3F1F",
"O. c #5A3E20",
"+. c #5B3E20",
"@. c #5D3F21",
"#. c #5C401F",
"$. c #5C4020",
"%. c #5E4120",
"&. c #5F4220",
"*. c #604220",
"=. c #604221",
"-. c #614221",
";. c #614321",
":. c #624321",
">. c #604022",
",. c #624322",
"<. c #634322",
"1. c #644422",
"2. c #654422",
"3. c #654423",
"4. c #664522",
"5. c #664523",
"6. c #674523",
"7. c #684623",
"8. c #684624",
"9. c #694624",
"0. c #6A4724",
"q. c #6B4724",
"w. c #6B4725",
"e. c #6C4725",
"r. c #6B4925",
"t. c #6C4824",
"y. c #6C4825",
"u. c #6D4825",
"i. c #6E4925",
"p. c #6E4826",
"a. c #6F4926",
"s. c #704A26",
"d. c #714A26",
"f. c #714A27",
"g. c #724A27",
"h. c #724B27",
"j. c #734B27",
"k. c #744B28",
"l. c #744C28",
"z. c #754C28",
"x. c #764C28",
"c. c #774C29",
"v. c #774D29",
"b. c #784D29",
"n. c #7A4E2A",
"m. c #7B4E2A",
"M. c #7A4F2A",
"N. c #7D4F2B",
"B. c #80502C",
"V. c #82522D",
"C. c #86552F",
"Z. c #8D5932",
/* pixels */
"/ >.>.>.>.A < T { { { { { { { Q 2 A @.>.>.+.>.>.>.@.h 2 @.>.>.>.",
"d.7.0.h.i.Z < *.7.o.$.=.1.=.=.#.2 M g.s.u.t.s.7.h.l.b 2 %.t.c.w.",
"s.v.j.t.d.b < _  .$.1.=.%.1.%.] < b 0.j.7.=.7.j.a.j.Z < #.u.z.u.",
"4.p.:.:.%.b < _ ] #. .] ] ] _ ] < b %. .=.:.:.#.=.*.b 2 o.1.1.1.",
"2 2 2 2 2 $ + < < < < < < < < < + $ 2 & O & 2 < 4 < $ + 4 4 4 4 ",
"2 @.>.>.>.Y >.+.1 ( @.2 A @.>.>.>.D / { | Q , A >.>.Y O.@.>.>.A ",
"4 e.b.N.9.#.b.x.g :.1.2 M y.d.1.a.%.` 6.q.-.< Z j.0.9.1.y.B.j.S ",
"< #.k.b.%.6.b.0.H 5.#.< b y.a.7.,.0.] m.7.6.< b :.N.v.9.d.a.7.Z ",
"< #.t.x.E a.h.=.F ] %.2 b 7.a.s.u.*.u.0.:.X.< b t.d.t.7.7.v.7.Z ",
"$ Z Z Z G M b v 8 u b $ r b Z b S b b Z Z l $ x b Z Z Z Z S S h ",
"4 4 4 4 4 - o ; , : & % 4 4 4 2 + , 4 9 4 4 4 4 4 * @ $ 4 4 4 4 ",
"a.g.b.n.x./ < 9.a.&.n } b.n.b.:.< T a.w.x.a.y.1.1.#.k s a.x.B.N.",
"s.j.a.i.j.b < 6.A t z -.u.x.~ #.< b 1.#. .o. .%.%.I 5 < _ #.k.9.",
"t.n.t.t.7.b < #.;.r.*.n 4.} Z  .< b ]  .] B $.J ] Z 6 < #.&.0.1.",
"G S Z Z Z i $ v Z T Z l Z b Z b $ i b b r @ d f M l 0 , L v T Q ",
"+ $ 2 , $ 4 7 3 $ , 4 + 2 4 4 4 4 4 9 4 4 > + , 4 4 , , 4 4 4 2 ",
"4 ] ..t.i.b.6.Z C ' %.4 T y.x.g.B.V.Z.C.b.5.2 / N.N.9.#.f.B.N./ ",
"< ] 1.7.Z ) o.E n ) ] < b s.a.1.u.u.7.7.b.9.< b 0.j.-.U j.b.t.Z ",
"< _ =.*._ %.1._ _ ` ] 4 b 0.b.i.0.b.1.x.d.2.< b 4.b.M.<.7.k.1.Z ",
"< ] ] Z  .%. .] W Z ] 2 b #.%.*.M { } ..%.U < Z *.:.1.-.:.8.1.Z ",
"+ < < $ < ; = ; # X = + $ < 2 $   . . + 2 < + , < 2 & % 5 q q 4 ",
"+.{ Q j N g $ ! >.>.>.>.>.>.>.@.* s ^ P R >.>./ +.>.V $ T { { T ",
"u.$. .b H M < e.N.y.s.n.j.b.s.%.2 M g.s.:.i.s.H *.l.Z < ] o.1.3.",
"1.=.#.M B w % :.%.7.n.p.2.a.9.*.2 b 0.j.#.=.7.s.a.j.Z < _ =.%.1.",
"1.t.$.K K b < ] c 1.j.v 4 y M :.4 b t.$.[ t.1.:.1.0.b 2 _  . .5.",
"b M b h a i $ T z p u X 4 y } G $ i Z b Q Z b b L h e $ Z M b Q ",
"# 4 4 4 , 4 4 4 4 4 > + 2 4 4 4 4 4 4 4 4 4 # 2 4 2 4 4 4 4 4 < ",
"4 a.b.N.B.N.B.x.8.n.f.4 / B.V.g.0.x.g.n.b.f.4 / b.f.N.b.k.B.n.Z ",
"<  .u.n.n.h.h.n.v.j.*.< b s.f.:.#.B m *.b.9.< b 0.j.a.n.j.b.t.Z ",
"< #.j.m.z.b.n.1.N.a.%.2 b 0.b.s.1.M.a.m.d.2.< b 4.m.s.0.0.k.1.Z ",
"< #.:.:.<.6.:.%.6.%.] < b #.%.*.%.:.6.:.%.U < Z *.:.:.:.:.8.1.Z ",
"+ 2 2 < 2 ; = ; < ; = + $ < 2 < < < < 2 2 < + , < 2 2 2 2 2 2 < "
};
