/* XPM */
static char *de5c485573aa42a38e027229062f41a0oV5azSSJno63Gjs6[] = {
/* columns rows colors chars-per-pixel */
"32 32 197 2 ",
"   c #151716",
".  c #392D1F",
"X  c #2A3329",
"o  c #2E2D32",
"O  c #3A2F3F",
"+  c #2F3B37",
"@  c #303D3E",
"#  c #393637",
"$  c #252B29",
"%  c #562B1E",
"&  c #46341C",
"*  c #503E18",
"=  c #523911",
"-  c #61391E",
";  c #7D3F10",
":  c #5A2D2A",
">  c #453F2B",
",  c #523D2A",
"<  c #482D3C",
"1  c #5D2639",
"2  c #403030",
"3  c #43393A",
"4  c #643F37",
"5  c #3F482B",
"6  c #34532A",
"7  c #354C34",
"8  c #394E3D",
"9  c #3C5B36",
"0  c #6B470D",
"q  c #744300",
"w  c #684E1A",
"e  c #76421D",
"r  c #446D1F",
"t  c #455320",
"y  c #40463A",
"u  c #40513F",
"i  c #455F3C",
"p  c #484824",
"a  c #704029",
"s  c #774B24",
"d  c #73553C",
"f  c #42742D",
"g  c #4C6932",
"h  c #5D6330",
"j  c #586C39",
"k  c #4A733A",
"l  c #517D34",
"z  c #5F783F",
"x  c #547337",
"c  c #3C2847",
"v  c #3D3A45",
"b  c #3F3655",
"n  c #4C2A4B",
"m  c #483141",
"M  c #413E45",
"N  c #453542",
"B  c #533A4D",
"V  c #4C3F5D",
"C  c #583850",
"Z  c #5A3556",
"A  c #62364F",
"S  c #5C3A62",
"D  c #6A3E6F",
"F  c #3D4648",
"G  c #3F4251",
"H  c #4B474D",
"J  c #434C47",
"K  c #524B4B",
"L  c #544943",
"P  c #485A47",
"I  c #4D4155",
"U  c #584056",
"Y  c #584459",
"T  c #455355",
"R  c #55545A",
"E  c #74534A",
"W  c #705555",
"Q  c #6B4657",
"!  c #4D6040",
"~  c #486048",
"^  c #486B46",
"/  c #4F7041",
"(  c #437947",
")  c #577D42",
"_  c #5D645D",
"`  c #557953",
"'  c #6C6C52",
"]  c #7D7E5E",
"[  c #5D4464",
"{  c #654369",
"}  c #694A6D",
"|  c #7E4D7A",
" . c #714E6E",
".. c #726761",
"X. c #8A5720",
"o. c #AE285D",
"O. c #B12C6D",
"+. c #814F5B",
"@. c #876549",
"#. c #987D4E",
"$. c #94775B",
"%. c #A9724B",
"&. c #AC6B55",
"*. c #A3775E",
"=. c #884066",
"-. c #946464",
";. c #917478",
":. c #4D9B2D",
">. c #46873C",
",. c #548C3C",
"<. c #5C8B3B",
"1. c #5A8237",
"2. c #4D9B3E",
"3. c #439B34",
"4. c #55953D",
"5. c #539C3C",
"6. c #5A9C3D",
"7. c #569536",
"8. c #619C3E",
"9. c #4DA038",
"0. c #56A13C",
"q. c #4A8E41",
"w. c #548B41",
"e. c #57884A",
"r. c #4C9643",
"t. c #4D9E43",
"y. c #4C954A",
"u. c #4D9A4C",
"i. c #439845",
"p. c #559544",
"a. c #5C9444",
"s. c #579B46",
"d. c #5C9B43",
"f. c #55944B",
"g. c #5A934C",
"h. c #549C4B",
"j. c #5B9C4C",
"k. c #5A8854",
"l. c #4C9D51",
"z. c #539C53",
"x. c #5A9852",
"c. c #6F8147",
"v. c #6F834D",
"b. c #708D4A",
"n. c #619341",
"m. c #639B45",
"M. c #62964C",
"N. c #649B4C",
"B. c #6A9545",
"V. c #619751",
"C. c #758556",
"Z. c #4DA342",
"A. c #4EA04C",
"S. c #53A245",
"D. c #5CA342",
"F. c #56A24A",
"G. c #5AA24D",
"H. c #54A151",
"J. c #5EA054",
"K. c #55A851",
"L. c #5CA45B",
"P. c #5B9E68",
"I. c #7A9B70",
"U. c #A58A5F",
"Y. c #A28C63",
"T. c #B0826A",
"R. c #B7966A",
"E. c #A1847E",
"W. c #BB9D77",
"Q. c #DAAE7F",
"!. c #866A81",
"~. c #917689",
"^. c #98878D",
"/. c #BA9583",
"(. c #B28D94",
"). c #B49894",
"_. c #BD97A2",
"`. c #AFAAAE",
"'. c #B8A6B4",
"]. c #CCA183",
"[. c #D5BC84",
"{. c #CEBC98",
"}. c #DAB998",
"|. c #E4BD84",
" X c #E9C79B",
".X c #FCCF96",
"XX c #F7D095",
"oX c #C4C0B7",
"OX c #FFD5A3",
"+X c #E4CCB2",
"@X c #F4C6B6",
"#X c #CEBDC3",
"$X c #D3BCC4",
"%X c #E6DBE3",
"&X c #F1D1E9",
"*X c #E6DCF5",
"=X c #F8F0E3",
/* pixels */
"s.s.s.s.s.s.s.s.s.s.s.s.s.s.s.s.s.s.s.s.s.s.s.s.s.s.s.s.s.s.s.s.",
"s.s.s.s.s.s.s.s.s.s.s.s.s.s.s.s.s.s.s.s.s.s.s.s.s.s.s.s.s.s.s.s.",
"s.s.s.s.s.s.s.s.s.s.s.s.s.s.s.s.s.s.s.s.s.s.s.s.s.s.s.s.s.s.s.s.",
"s.s.s.s.s.s.s.s.s.s.s.s.s.s.s.s.s.s.s.s.s.s.s.s.s.s.s.s.s.s.s.s.",
"s.s.s.s.s.s.s.s.s.s.s.s.s.s.s.s.s.s.s.s.s.s.s.s.s.s.s.s.s.s.s.s.",
"s.s.s.s.s.s.s.s.s.s.s.s.s.s.s.s.s.s.s.s.s.s.s.s.s.s.s.s.s.g.s.s.",
"s.s.s.s.s.s.s.s.s.s.s.s.s.s.s.s.s.s.s.s.s.s.s.s.s.s.s.s.s.s.s.s.",
"s.s.s.s.s.s.s.s.s.s.s.s.s.s.s.s.s.s.s.s.s.s.s.s.s.s.s.s.s.s.s.s.",
"s.s.s.s.s.s.s.s.N.3.j.n.P.F 7 6 5 7 k d.S.4.N.l.s.s.s.s.s.s.s.s.",
"s.s.s.s.s.s.s.s.u.8.s.f.u M A n V M M ^ z.6.8.5.s.s.s.s.s.s.s.s.",
"s.s.s.s.s.s.s.s.u.m.6.^ c Z O.=.S { Z M ( x.d.p.s.s.s.s.s.s.s.s.",
"s.s.s.s.s.s.s.s.s.e.4.8 S D o.&. .Q | } 9 4.d.0.s.s.s.s.s.s.s.s.",
"s.s.s.s.s.s.s.s.D.x.>.O D { +.T.R.Y.W Z g M.f.l.s.s.s.s.s.s.s.s.",
"s.s.s.s.s.s.s.s.4.h.>.c [ B ..!.].{.W N P N.5.h.s.s.s.s.s.s.s.s.",
"s.s.s.s.s.s.s.s.M.Z.,.c I Y /.$X.X X}.^.~ q.s.x.s.s.s.s.s.s.s.s.",
"s.s.s.s.s.s.s.s.g.6.a.T C } %.XXXX X.X*.9 K.:.V.s.s.s.s.s.s.s.s.",
"s.s.s.s.s.s.s.s.6.J.5.( 3 Y < U.|.[.]., k r.0.h.s.s.s.s.s.s.s.s.",
"s.s.s.s.s.s.s.s.g.3.m.x.`   1 R.@.a . / j.h.a.N.s.s.s.s.s.s.s.s.",
"s.s.s.s.s.s.s.s.J.s.n.r.I.%X(.@X+X_.' y.s.h.h.2.s.s.s.s.s.s.s.s.",
"s.s.s.s.s.s.s.s.5.G.S.<.oX*X-.#X=X&X`.f 7.p.L.t.s.s.s.s.s.s.s.s.",
"s.s.s.s.s.s.s.s.7.A.H.<.).`.p E ^.~.;.h 8.s.N.s.s.s.s.s.s.s.s.s.",
"s.s.s.s.s.s.s.s.d.d.g.g.W.$.) e X.s a $.M.S.4.d.s.s.s.s.s.s.s.s.",
"s.s.s.s.s.s.s.s.s.a.G.c.[.x & w q 0 , $.v.h.Z.5.s.s.s.s.s.s.s.s.",
"s.s.s.s.s.s.s.s.S.y.B.b. Xd J 3 K I L d #.1.z.M.s.s.s.s.s.s.s.s.",
"s.s.s.s.s.s.s.s.j.2.s.C.[.&.F T M X 7 + @.<.F.a.s.s.s.s.s.s.s.s.",
"s.s.s.s.s.s.s.s.6.K.r.a.v.' P R 8 $ c # w.f.h.F.s.s.s.s.s.s.s.s.",
"s.s.s.s.s.s.s.s.a.f.N.s.f.X K L k.o v i i.s.t.h.s.s.s.s.s.s.s.s.",
"s.s.s.s.s.s.s.s.G.S.a.h.z.$ G k.q.# v k s.s.2.M.s.s.s.s.s.s.s.s.",
"s.s.s.s.s.s.s.s.p.Z.s.s.a.# v y.r 5 2 k m.s.4.N.s.s.s.s.s.s.s.s.",
"s.s.s.s.s.s.s.s.M.J.,.s.t : > f.l % % w.d.t.F.p.s.s.s.s.s.s.s.s.",
"s.s.s.s.s.s.s.s.s.r.F.g.h - h t.M.= * e.4.p.K.a.s.s.s.s.s.s.s.s.",
"s.s.s.s.s.s.s.s.j.D.g.k.w ; j d.k.1.x ) 4.d.f.d.s.s.s.s.s.s.s.s."
};
