/* XPM */
static char *result[] = {
/* columns rows colors chars-per-pixel */
"32 32 102 2 ",
"   c black",
".  c gray3",
"X  c #0B0B0B",
"o  c #101010",
"O  c gray7",
"+  c #131313",
"@  c #161616",
"#  c #181818",
"$  c #191919",
"%  c gray10",
"&  c #1B1B1B",
"*  c gray11",
"=  c #1D1D1D",
"-  c #1E1E1E",
";  c #202020",
":  c gray13",
">  c #222222",
",  c #232323",
"<  c gray14",
"1  c #252525",
"2  c gray15",
"3  c #272727",
"4  c #282828",
"5  c gray16",
"6  c #2A2A2A",
"7  c gray17",
"8  c #2C2C2C",
"9  c #2D2D2D",
"0  c gray18",
"q  c #2F2F2F",
"w  c gray19",
"e  c #323232",
"r  c gray20",
"t  c #343434",
"y  c #353535",
"u  c gray21",
"i  c #373737",
"p  c gray22",
"a  c #3A3A3A",
"s  c gray23",
"d  c #3C3C3C",
"f  c gray24",
"g  c #3E3E3E",
"h  c #3F3F3F",
"j  c gray25",
"k  c #414141",
"l  c gray26",
"z  c #434343",
"x  c #444444",
"c  c gray27",
"v  c #464646",
"b  c gray28",
"n  c #484848",
"m  c #494949",
"M  c gray29",
"N  c #4B4B4B",
"B  c #4C4C4C",
"V  c gray30",
"C  c #4E4E4E",
"Z  c gray31",
"A  c #515151",
"S  c gray32",
"D  c gray33",
"F  c #555555",
"G  c #565656",
"H  c gray34",
"J  c #585858",
"K  c gray35",
"L  c #5A5A5A",
"P  c #5B5B5B",
"I  c gray36",
"U  c #5D5D5D",
"Y  c gray37",
"T  c #5F5F5F",
"R  c #606060",
"E  c gray38",
"W  c #626262",
"Q  c gray39",
"!  c #646464",
"~  c #656565",
"^  c gray40",
"/  c #686868",
"(  c DimGray",
")  c #6A6A6A",
"_  c #6C6C6C",
"`  c #6D6D6D",
"'  c #6F6F6F",
"]  c gray44",
"[  c #717171",
"{  c gray45",
"}  c #747474",
"|  c #767676",
" . c #777777",
".. c gray47",
"X. c #797979",
"o. c gray48",
"O. c #7C7C7C",
"+. c gray49",
"@. c #7E7E7E",
"#. c #808080",
"$. c #818181",
"%. c #848484",
/* pixels */
"8 8 8 8 8 f D D D D D D D y 4 C C C C D k : 2 2 2 2 2 8 8 8 8 8 ",
"t t t t @ C { { ] { { | ^ ; 7 { G Z Z Z k   < W W W P k t t t t ",
"W ' Q j + S ( ! U ! R K S @ % Q G U G Z r   < X.( ^ ] ( ( W ( ( ",
"_ ` K e . G Q S R S M F N @ o a U Z G U o   < | G M S N I U K ) ",
"R K S e   n } R Z C N Z n $ . & @ o .     . - X.Z b V Y S n F F ",
"N C x ;   t ( S h N S N Z $   # o ; 7 e 0 % 2 ( Z b f f u b b j ",
"8 q -     2 ] Z b S Z b Z @   r ] | ` Q N + + < < , ; 2 2 2 2 2 ",
"          2 T G F C N G k 1   l o.Z Z Z k   . @ @ . o o o o o o ",
"/ / / W 3 @ k ~ Z M x Z n w   l ) G G G a   7 | z 5 E / / / / / ",
"K G G Z 0 + 9 J Z Z k k a &   a K n t 9 -   B ^ < a | ^ ^ Q T W ",
"K G G Z @ o 2 $ @ + o         O 1 o         Y ! < i ( F F S z C ",
"Z p Z N +   b v g y ; . 8 l C F ~ ] ~ A $ * O.U ; w ] C S S p N ",
"S G Z f .   | F I J 0 2 W  .( ( ( _ ~ A + <  .S = 6 F b f j N Z ",
"q < $ .     ( U R N * ; ] U S S N Z S k o < [ K @ @ . o o o + - ",
"@ ; 3 t t # ] M G b * o ] S Z j j N Z k o < } U @ - o @ @ @ X   ",
"M { X.) Q % ] K j K 4 o P _ Z N p N G u . < ( S @ n W ( H C x - ",
"L ^ G K G 7 ] F U G r   C ..R Z N p G i   8 ^ G @ C G G G G j + ",
"L Q Z R S @ | F C I e   i +.G C N S S <   t Q Z @ N G G n n N o ",
"L Q U K G @ X.C Z S u   - _ G b x s ; X   5 3 X o r g k k a a   ",
"L I K G S @ E A U Z u   + > ; +         . 2 , 2 2 & o           ",
"L Q G K S @ K G x G u   . 8 * * < 8 8 8 t f C H L L H L L L m @ ",
"D ^ K U k   G G C Z e     L +.%.%.#.%.#.%.$.%.$.$.%.@.%.X.{ d o ",
"D K G n a   N G G Z u     L { W W I ( ) ~ ^ R M S U N G U G a   ",
"a C k 8 @   k K Z n u     z X.K Z Z b G C U M N Z N M S C S a   ",
"- + X @ X o @ * * * @     7 { S G G N b v C S S N n N x S p a   ",
"2 l l q @ &               = q < 8 t n S j d j d b b j b j z u   ",
"l | ( X.| ( S c e e < ; ; q 2 o o . . - 2 2 2 2 2 2 2 2 2 2 & . ",
"l ] U D K Y ( ( ( ] ( ^ ] | ] ` 4 2 o .                     o , ",
"l ` U M F S K N z N b Z G G ! C $ + n ] ~ C a 5 x C C C N k 8 5 ",
"s u 8 8 8 8 8 8 8 8 8 8 8 8 8 5 o   N ` ( ( M f Q U U G K G J @ ",
"&                                   + & @ * * e x x x x x k r @ ",
"e e 8 8 8 8 * * * * * * * * * * * * 3 e 8 * * 3 3 * * * * * * 3 "
};
