/* XPM */
static char *result[] = {
/* columns rows colors chars-per-pixel */
"32 32 43 1 ",
"  c #080018",
". c #0E001E",
"X c #2B0F06",
"o c #391509",
"O c #38170A",
"+ c #18002E",
"@ c #1B0034",
"# c #130039",
"$ c #4A210F",
"% c #592B07",
"& c #46332D",
"* c #6B4116",
"= c #180049",
"- c #2D004F",
"; c #1F0064",
": c #3C006D",
"> c #8B6524",
", c #8D6034",
"< c #B79457",
"1 c #E7C07C",
"2 c #280080",
"3 c #430088",
"4 c #4A008A",
"5 c #4A008B",
"6 c #6500A9",
"7 c #6500AA",
"8 c #6300BF",
"9 c #6800D0",
"0 c #5A00E1",
"q c #6500E0",
"w c #7A00E2",
"e c #8E00FF",
"r c #8F00FF",
"t c #A600E9",
"y c #AB00F3",
"u c #C300FF",
"i c #D700FF",
"p c magenta",
"a c #E231FF",
"s c #AE48FF",
"d c #FF4DFF",
"f c #ED68FF",
"g c #F672FF",
/* pixels */
"&&&&&&&&&&&&&&&&&&&&&&&&&&&&&&&&",
"&&&&&&&&&&&&&&XOOO&&&&&&&&&&&&&&",
"&&&&&&&&&&&&&X%><1O&&&&&&&&&&&&&",
"&&&&&&&&&&&&&Xooo$X&&&&&&&&&&&&&",
"&&&&&&&&&&&&& %%*, &&&&&&&&&&&&&",
"&&&&&&&&&&&& 5@@--a &&&&&&&&&&&&",
"&&&&&&&&&&&& ::6eag &&&&&&&&&&&&",
"&&&&&&&&&&&&& ---- &&&&&&&&&&&&&",
"&&&&&&&&&&&&& ##=0 &&&&&&&&&&&&&",
"&&&&&&&&&&&&& :#5a &&&&&&&&&&&&&",
"&&&&&&&&&&&  :#67ea  &&&&&&&&&&&",
"&&&&&&&&&& ::#47eesaf &&&&&&&&&&",
"&&&&&&&&& ..;wwiiafg-- &&&&&&&&&",
"&&&&&&&&& ##...++---;w &&&&&&&&&",
"&&&&&&&&& :####=====td &&&&&&&&&",
"&&&&&&&&& :###=599ypdg &&&&&&&&&",
"&&&&&&&&&& :#=qrruuaa &&&&&&&&&&",
"&&&&&&&&&& :#=59eeeaf &&&&&&&&&&",
"&&&&&&&&&& :##59eesag &&&&&&&&&&",
"&&&&&&&&&& 3##59essfg &&&&&&&&&&",
"&&&&&&&&&&& :#=5essf &&&&&&&&&&&",
"&&&&&&&&&&& :#=5esaf &&&&&&&&&&&",
"&&&&&&&&&&& :##5esag &&&&&&&&&&&",
"&&&&&&&&&&&& :#59sa &&&&&&&&&&&&",
"&&&&&&&&&&&& :#55ea &&&&&&&&&&&&",
"&&&&&&&&&&&& :#=5ea &&&&&&&&&&&&",
"&&&&&&&&&&&&& :#5i &&&&&&&&&&&&&",
"&&&&&&&&&&&&& :#=y &&&&&&&&&&&&&",
"&&&&&&&&&&&&&& :2 &&&&&&&&&&&&&&",
"&&&&&&&&&&&&&& :8 &&&&&&&&&&&&&&",
"&&&&&&&&&&&&&&&  &&&&&&&&&&&&&&&",
"&&&&&&&&&&&&&&&&&&&&&&&&&&&&&&&&"
};
