/* XPM */
static char *birch1609233560[] = {
/* columns rows colors chars-per-pixel */
"32 32 134 2 ",
"   c None",
".  c #232115",
"X  c #3E532D",
"o  c #4A483B",
"O  c #445C32",
"+  c #4F693D",
"@  c #516F39",
"#  c #56713D",
"$  c #566944",
"%  c #5D7546",
"&  c #5E764C",
"*  c #657644",
"=  c #617D46",
"-  c #657C47",
";  c #687F4F",
":  c #776C68",
">  c #7A7D6B",
",  c #638048",
"<  c #67854A",
"1  c #66874B",
"2  c #69814F",
"3  c #6B844F",
"4  c #6A864E",
"5  c #6C874D",
"6  c #668B4E",
"7  c #698948",
"8  c #6F8F49",
"9  c #69884E",
"0  c #6A8453",
"q  c #6C8753",
"w  c #6E8652",
"e  c #6C8850",
"r  c #6E8C50",
"t  c #718750",
"y  c #718950",
"u  c #728952",
"i  c #718A56",
"p  c #758B54",
"a  c #7C8A54",
"s  c #7A8C55",
"d  c #788D57",
"f  c #73855B",
"g  c #768958",
"h  c #758A58",
"j  c #76895B",
"k  c #728D59",
"l  c #77885C",
"z  c #798E58",
"x  c #798D5D",
"c  c #719155",
"v  c #7B9A56",
"b  c #759058",
"n  c #789258",
"m  c #7D9159",
"M  c #7A955B",
"N  c #7E9658",
"B  c #7E955A",
"V  c #7C985B",
"C  c #7B985C",
"Z  c #7F9260",
"A  c #799760",
"S  c #7D9164",
"D  c #7C9B6A",
"F  c #839B5A",
"G  c #869B59",
"H  c #849463",
"J  c #879D63",
"K  c #85966B",
"L  c #849A69",
"P  c #869E6B",
"I  c #899B6D",
"U  c #8F9E6E",
"Y  c #898F75",
"T  c #8C9D70",
"R  c #85A165",
"E  c #88A665",
"W  c #8DA56E",
"Q  c #8EAD6E",
"!  c #9BB26F",
"~  c #8FA078",
"^  c #91A977",
"/  c #94AC75",
"(  c #91A27A",
")  c #95A57D",
"_  c #9AA379",
"`  c #96A87B",
"'  c #9CAC7E",
"]  c #9DBA7B",
"[  c #8BA081",
"{  c #97A980",
"}  c #98AD82",
"|  c #99A788",
" . c #9DB583",
".. c #9FB884",
"X. c #A6B583",
"o. c #A2B48D",
"O. c #A7BA8C",
"+. c #AEB693",
"@. c #B5BE91",
"#. c #B7BF93",
"$. c #B1B69D",
"%. c #B0B99F",
"&. c #ADAFA0",
"*. c #B3B5AB",
"=. c #B6C49A",
"-. c #B3C19E",
";. c #BCC89C",
":. c #BFCFA3",
">. c #BFCEA4",
",. c #B9C2AB",
"<. c #C5CEA9",
"1. c #C9CFAB",
"2. c #C9CEAD",
"3. c #CBD2AB",
"4. c #C1C9B7",
"5. c #C5C8B6",
"6. c #C2C7BB",
"7. c #C5C5BD",
"8. c #C7CFB8",
"9. c #CACDB9",
"0. c #CAD1B0",
"q. c #CAC3C0",
"w. c #D1CEC3",
"e. c #D3D4C7",
"r. c #D3D9C5",
"t. c #D6DBC4",
"y. c #DAE2C7",
"u. c #DEE1C7",
"i. c #D8E1C8",
"p. c #DEE7CA",
"a. c #D9E4CD",
"s. c #DEE4CF",
"d. c #DEE6CE",
"f. c white",
/* pixels */
"                      X F X 3 9 N X d O X.                      ",
"                    X ! N ; 3 - X y g f X                       ",
"                    <.G z x d X b 9 t z H #.a                   ",
"                    X a X Z w e c 6 - s T #.t.                  ",
"                    p.U * K w : X X r X ( X a                   ",
"                X   X g j # { : 7 1 C k X ;.d.                  ",
"        q.      o.P 0 W O.# # : u C R & $ ` X                   ",
"              X ^ X 5 / : # # : : b # % X 0 X                   ",
"                X 8 J w f :   w :   # # + A -.                  ",
"                 .v M ~ w : :   : # : . o Q X X                 ",
"                  E X I   } : : : [ . o o ] :.                  ",
"                    7 L | X S : : : o o ..X ' X                 ",
"            # #.#   # #   #.) : > : o a =.  #                   ",
"            X X #.#.D #.# # w : #.o o   1.# # #                 ",
"          #   # #.: : : # #.$.: o o a     # #.  #               ",
"              X i.#.  : : o &.: o   X   3.X #.#                 ",
"                %.        : . f.o 7.e.X 2.: #   a #             ",
"                ,.  @       o : .     : : u.    a               ",
"                4.O = w       : o   : 9.0.X X                   ",
"                X X : : *.    f.o : w.+.X d.                    ",
"                  X X   : :   o :     _ #.  X a                 ",
"                X   X       : o f.    <.# # #                   ",
"                  X X   #.    o o     #.: #.#.a                 ",
"                      #.: . : o o   . o   #.                    ",
"                    a   X 6.. o f.. . X   #.#                   ",
"                    a.        : : : : 5.                        ",
"                              f.. y.                            ",
"                  r.          o .                               ",
"                              o .                               ",
"                              o o                               ",
"                            : . o Y 8.                          ",
"                          : : . o .                             "
};
