/* XPM */
static char *coffee_tree1609233561[] = {
/* columns rows colors chars-per-pixel */
"32 32 8 1 ",
"  c None",
". c #365831",
"X c #4F4524",
"o c #5D563E",
"O c #477940",
"+ c #716B56",
"@ c #589B4E",
"# c #84BF7B",
/* pixels */
"        @#..    .               ",
"      OO.@#@O  .#.              ",
"       O..@....#@.O.#           ",
"     OO@#...OO.@@OO#@..         ",
"     #O.##..O.O..O.@@..#        ",
"   ##@......#.OO......#@..      ",
"   @@@...OO.@#.O.....@@@OO.     ",
" OOO...#..O..@@..OO.....O.OO#@  ",
"  #O..#@...OOO...O...#....O.@@  ",
" #@..@@@OO..OO......#@..O...... ",
"@@@..O.......#@@.O.@@@O.O..#OO.#",
" O..OO.#..@OOO#@OO....OO..@@O.#@",
"OO.#..#@O.@@.O.....OOO........@@",
"..#@.#@@OO.......O.O...OO...... ",
" @@@.....OOO.@@@OO.....O...##.  ",
"  ..O..#@X....##.....#....#@@.  ",
"  ..O.#@@XOOX....OO##@..O.@..   ",
" .#@.....oXOoX@@@Oo@@@..OO.OO   ",
" #@@.O..OO...o.##OoO..#...OO    ",
"    OO...OO..oOO.oXOO.@@...     ",
"     .#@..O....OOX..O......     ",
"     #@@O..@@..@#......#@@..    ",
"     ..OO.#@...@..@@@...#@      ",
"       O.#@@ +o...##@.  .       ",
"          XX +oX..  #           ",
"            XooX                ",
"              oX                ",
"              oX                ",
"              oXX               ",
"              ooX               ",
"              +oX               ",
"             ++oX               "
};
