/* XPM */
static char *s_11609233562[] = {
/* columns rows colors chars-per-pixel */
"32 32 28 1 ",
"  c None",
". c #2E1E22",
"X c #3A3A3A",
"o c #473D3C",
"O c #534721",
"+ c #505050",
"@ c #685958",
"# c gray38",
"$ c gray49",
"% c #971E2A",
"& c #964F00",
"* c #CB3044",
"= c #9D704C",
"- c #877A77",
"; c #FF4460",
": c #D7906E",
"> c #928A8C",
", c #B0A39F",
"< c #A7A7A8",
"1 c #B1ADAF",
"2 c #EEBE93",
"3 c #FFE1AF",
"4 c #D4D4D7",
"5 c gray85",
"6 c #D9D9DD",
"7 c #DFDDDF",
"8 c #E6E6E8",
"9 c white",
/* pixels */
"                                ",
"             ooooo              ",
"          ooo@@@@@ooo           ",
"        oo@-,-----,-@oo         ",
"       o@--,-------,--@o        ",
"      o@--,,,-----,,,--@o       ",
"     o@----,,,,,,,,,----@o      ",
"     o-------------------o      ",
"    o@---------@---------@o     ",
"    o@-@--@-@-@3@-@-@--@-@o     ",
"    o@@---@-@-333-@-@---@@o     ",
"    o@@--@3@3@333@3@3@--@@o     ",
"    o@:--2333333333332--:@o     ",
"    o@:-,2OOO33333OOO2,-:@o     ",
"    o@@-,O5.6333336.5O,-@@o     ",
"     o@--O9.>33333>.9O--@o      ",
"     o@--:2&&33333&&2:--@o      ",
"      o@-O:233333332:O-@o       ",
"       o-XO=:22222:=OX-o        ",
"      <4@8XOOOOOOOOOX8@4<       ",
"     X+884%X1+222+1X%488+X      ",
"     O=##<8%*7$2$7*%8<##=O      ",
"     O22=<88%*X+X*%88<=22O      ",
"    O=3:O<4888%*%8884<O:3=O     ",
"    O33=OX<444*;*444<XO=33O     ",
"    O32OX++##+#;#+##++XO23O     ",
"     OO  X##+#$$$#+##X  OO      ",
"          XX+#$$$#+XX           ",
"          O:XXXXXXX:O           ",
"          X791X X197X           ",
"          X##+X X+##X           ",
"           XXX   XXX            "
};
