/* XPM */
static char *s_51609233563[] = {
/* columns rows colors chars-per-pixel */
"32 32 12 1 ",
"  c None",
". c #1F1F20",
"X c #2C2C2E",
"o c #424049",
"O c #48484D",
"+ c gray34",
"@ c #686C72",
"# c #686976",
"$ c #7A7B8D",
"% c #9999AD",
"& c #A9AABF",
"* c #C0C1D1",
/* pixels */
"                                ",
"                                ",
"                                ",
"                                ",
"                                ",
"                                ",
"                  OOX           ",
"                OX@@@OX         ",
"               O@@@++X+O        ",
"               O@@++X.X+X       ",
"              O@@+++X XX+X      ",
"              O@+++++X .+X      ",
"              O+++++++.+++X     ",
"              O++++++++++o.     ",
"              X+++++++++oo.     ",
"              oX+++++++oo.      ",
"             $*X++++++oo.       ",
"            $*&%oo++ooo.        ",
"           $*&%&%X.....         ",
"          $*&%&%#               ",
"         $*&%&%#                ",
"        $*&%&%#                 ",
"       $*&%&%#                  ",
"      $*&%&%#                   ",
"     $*&%&%#                    ",
"     #&%&%#                     ",
"     #%&##                      ",
"      ##                        ",
"                                ",
"                                ",
"                                ",
"                                "
};
