/* XPM */
static char *limon1609233561[] = {
/* columns rows colors chars-per-pixel */
"32 32 12 1 ",
"  c None",
". c #3C6D1F",
"X c #414123",
"o c #544C27",
"O c #776C39",
"+ c #518731",
"@ c #739330",
"# c #B1B21F",
"$ c #A0CE3E",
"% c #DADC02",
"& c #C9CA1B",
"* c #8EB046",
/* pixels */
"     @ $  +   + @ @@   $        ",
"      @$+ .@ ..$@+.+...$$       ",
"   @@..@+..@+.+$$@....+$+. $    ",
"   .@..@@.@+@@.@..+.@@$.++.. $  ",
"  $..+.$@$$@$@..@.@+$$$@.@.@+$  ",
" @@+$.&$+@@@$.@*+....+$+@@+.$+  ",
"@@+..&%....+...*++$$+o$.@.@.$+ @",
" $$+..+.@..$.$+..+*.oO$.++&+@+@@",
" +$@@@++++O$+$+.&+*.$++@@%%.$@@ ",
"@@ @@+.%@@@Oo.+%%$+++$..+..@$$  ",
"  @@$+.%%$++Oo+%%+$o$%...+$@+   ",
" @@ .@@$$+@*+Oo.$+oO.&&@+.$$@+  ",
"    .@$$.@@$++Oo$+O+@.$@@@+$$   ",
"   @@.@@.+@$.@+ooo$%+@@.@+$++   ",
"  @@ .....@$%...o+O%#...+@$+    ",
"    @..OOooo%#@XoO@&#+.@+@$     ",
"    @% @@@@Ooo$.oO@.@@$@@@+++   ",
"    %% ...$$@O..X..++.$$++ %+   ",
"    %% %@$@@ @o Xo@ + @    %#   ",
"       %%@@  @@oXX    @    &%   ",
"       %&@   @  XX              ",
"                XX              ",
"                XX              ",
"                XX              ",
"                XX              ",
"                XX              ",
"                XX              ",
"                XX              ",
"                XX              ",
"                XX              ",
"                XX              ",
"               ooXo             "
};
