/* XPM */
static char *maple1609233562[] = {
/* columns rows colors chars-per-pixel */
"32 32 10 1 ",
"  c None",
". c #2F2020",
"X c #453F2E",
"o c #584747",
"O c #CB261B",
"+ c #9E4E1E",
"@ c #BC4D33",
"# c #CB791B",
"$ c #EF5B51",
"% c #E6AC6A",
/* pixels */
"               @@ @@+           ",
"        @@@ @  @@ O#++ OO ++    ",
"         @# #XX@ @OO%#@O@++     ",
"      @@ @@$##X$.XX$@$@%##      ",
"     ##@X##$@@$$.X$@@#$@@# ++   ",
"       @@$$O$@$..O###O%$@@@+++  ",
"    @@O @$XX#%O..O%#OXOO%@$$    ",
"    @XOOXOX%#OO..%@@X%$@@%OO    ",
"    +X$O$OOO%##..#O%$@++%$+O    ",
"   ++$@@$OOOXX%..#O+$$$%+$$+    ",
"  ++#@@@@#$%##X..$%X@@$@%O%++   ",
"   ## $@##XOO#XX.XXX@%@@@ % +   ",
"      ++ooooo  .X@ ##@#@        ",
"     ++   O oo .X     ##++      ",
"            +#ooX        +      ",
"            ++..X               ",
"           O+ ..X               ",
"              .oX               ",
"              .oX               ",
"              ..X               ",
"              ..X               ",
"              o.X  #O           ",
"        + +   .oX  +            ",
"       $$O+   ..X X             ",
"        ##Oo  ..XX              ",
"       +  +oo...X               ",
"            o.X.X               ",
"         $   .X.X               ",
"          #O.XX.X               ",
"          O .X.X                ",
"            XX.                 ",
"           .XX.                 "
};
