/* XPM */
static char *pine1609233562[] = {
/* columns rows colors chars-per-pixel */
"32 32 9 1 ",
"  c None",
". c #1A1D13",
"X c #26291F",
"o c #3B3424",
"O c #354907",
"+ c #604C1F",
"@ c #4D6514",
"# c #628227",
"$ c #819E4C",
/* pixels */
"              $##               ",
"             $#$#               ",
"           #$#o@@O              ",
"           O@@###O              ",
"            OO@OO               ",
"              @@                ",
"          $#$  o #$             ",
"         OO##@#$@#@OO           ",
"          @OO@#oo#@O            ",
"     $       O@OOO    ##$#$$    ",
"    O##$$#     X. ooo@O@@@$@$   ",
"    O@o#@$     X.oo  @OOOOO O   ",
"     O@OOOXo   X.o    $OO@@O    ",
"         O Xo  X.        @OOO   ",
"             Xoo.               ",
"               +.               ",
"           #   ++..             ",
"          $@OX+..               ",
"              X+.               ",
"               ..               ",
"             XXX.               ",
"               X.               ",
"               X.               ",
"               o.               ",
"               o.               ",
"               o.               ",
"               +.               ",
"              Xo.               ",
"              oo.               ",
"              oX.               ",
"              +..               ",
"              X..               "
};
