/* XPM */
static char *s_71609233563[] = {
/* columns rows colors chars-per-pixel */
"32 32 6 1 ",
"  c None",
". c #663931",
"X c #894038",
"o c #A45E40",
"O c #BB6D4C",
"+ c #E47B68",
/* pixels */
"                                ",
"                                ",
"                                ",
"                                ",
"                                ",
"                                ",
"                 .              ",
"                ..              ",
"                ...             ",
"              ..Oo.             ",
"             .Ooo..             ",
"             .oooo.             ",
"            ...ooX..            ",
"           .Oooooooo.           ",
"          .Oooooooooo.          ",
"          .ooooooooooo.         ",
"         .oooooooooooo.         ",
"         .ooo+oooo+ooo.         ",
"       ..Xooo.oooo.ooXX..       ",
"      .Oooooo.oooo.oooooo.      ",
"     .Oooooooooooooooooooo.     ",
"     .oooooooo.o.ooooooooo.     ",
"     .ooooooooo.ooooooooXX.     ",
"     .ooooooooooooooooXXXX.     ",
"     .oooooooooooooXXXXXX..     ",
"      .oooooooXXXXXXXXXX..      ",
"       ..................       ",
"                                ",
"                                ",
"                                ",
"                                ",
"                                "
};
