/* XPM */
static char *s_41609233563[] = {
/* columns rows colors chars-per-pixel */
"32 32 26 1 ",
"  c None",
". c #2E1E22",
"X c #3A3A3A",
"o c #375C38",
"O c #534721",
"+ c #420044",
"@ c #5E005C",
"# c #505050",
"$ c gray38",
"% c #964F00",
"& c #96641C",
"* c #9D704C",
"= c #4D924E",
"- c #57AC59",
"; c #63C965",
": c #C98E2A",
"> c #DEB84A",
", c #D7906E",
"< c #928A8C",
"1 c #EEBE93",
"2 c #EBD687",
"3 c #FFE1AF",
"4 c #C1C2C3",
"5 c gray85",
"6 c #D9D9DD",
"7 c white",
/* pixels */
"                                ",
"             &&&&&&&            ",
"           &&:::::::&&          ",
"         &&:>2>>>>>2>:&&        ",
"        &:>>2>>>>>>2>:::&       ",
"       &:>>222>>>>2>:::>:&      ",
"      &:>>>>22222:::::>>>:&     ",
"      &>>:>>:>>>::::::>:>>&     ",
"     &:>:>>:>>>:33331::>:>:&    ",
"     &::>::>>>:3333331:>>::&    ",
"     &:::>>>>:333333331>>::&    ",
"    &:::>>>::3333333331>:::&    ",
"     &:,:::333333333331::,:&    ",
"      &,:,1OOO33333OOO1,:,&     ",
"       O:*15.6333336.51*:O      ",
"        O*17.<33333<.71*O       ",
"         O,1%%33333%%1,O        ",
"         oO,133333331,Oo        ",
"        o=oO*,11111,*Oo=o       ",
"       o=--oOOOOOOOOOo--=o      ",
"       o-;-o=;=4+4=;=o-;-o      ",
"      o=--o=oo;+@+;oo=o--=o     ",
"      o---o=;==;@;====o---o     ",
"     o=--=o=;;;=;=;;;=o=--=o    ",
"     O33*oo=;;;=o;;;;=oo*33O    ",
"     O31O oo-;;=-;;;-oo O13O    ",
"      OO  o=ooooooooo=o  OO     ",
"           =-;-ooo-;-=          ",
"           o-;-o o-;-o          ",
"           X=-=X X=-=X          ",
"           X$$#X X#$$X          ",
"            XXX   XXX           "
};
