/* XPM */
static char *result[] = {
/* columns rows colors chars-per-pixel */
"32 32 31 1 ",
"  c #E43D44",
". c #3E8948",
"X c #EBD4AB",
"o c #A32732",
"O c #104E89",
"+ c #2EE8F7",
"@ c #5B6986",
"# c #F6757A",
"$ c #C0CCDC",
"% c #C28569",
"& c #63C64F",
"* c #FF0042",
"= c #E8B796",
"- c #171523",
"; c #0099DC",
": c #3A4466",
"> c #733D3B",
", c #B44F87",
"< c #5A6988",
"1 c #ECF0F1",
"2 c #F77622",
"3 c #B9704F",
"4 c #265C42",
"5 c #FDAE35",
"6 c #D77643",
"7 c #BF4830",
"8 c #FEE861",
"9 c #67386C",
"0 c #E4A570",
"q c #8B9BB5",
"w c white",
/* pixels */
" .X.oO+O+@#$%.#.X&X*=-%. ;:>,<1=",
";2>.3$4@%5#6o#=72>4<<-.o&=,-4+O<",
"*7&:;-.$$o8.;,:X &:@-X2:O7#*3514",
"@$6;O$3::@95--7o.&-0;,o4764=;.*&",
"6##-@o6*>2X6q>-@$<567$*7+O-,9*=-",
"*&8%3,6+3$$4O02 <q+q.OX8-%#<,1<4",
".4+# 628#X6X;<,3-$X-83q;X2 $$$.$",
"q*=%>:&o%&&3677-<,51.,2>,q<X55q<",
"$5o,:7,#6-2*O.27+-9X8.<,6O*35=:;",
"5-3+=7O+$8<;1.+>9;;7+8%-.+93::39",
"1Xo1O &.<:5OX>Xq%9+3*8O998.=2$<O",
"&**348q-5=  =1o0=99:283++#.q7:6:",
"@O*$@6346>.1=,<,695.7q1o-q1 3=$%",
"8@2$*09%q6:2-#4q #q 0-5:<:9,904X",
"=#28;59-- =&@0=+7;#<5806242&3o5;",
"#80,2O.59%=+;;X.,&+--o2q3$6<>;0.",
"*,XX,q%qq5,7#.-2-57#$ X@,@4$.< 9",
" O O-45<O+4-,=&o.-<<4>27=#o6#5%@",
"Oo@ 2q84153*#7O:2X-@:& X:,;.8o$$",
":2q;2#5&*.;=4674o,;0-&.o7--59@::",
"5O,q 95-=*9,-O+7*$765<$@->q6X2>*",
"7%%4>7%4<1,<#%-8XO.q+q< 20O4$$3+",
"#<@q5+q$.$$$ 2X;q38-X$-3,<;X6X#8",
"X50-=O4<q55X<q,>2,.15,<-7763&&%o",
"&6;.<*=;:=53*O6,<.8X9-+72.O*2-6#",
"XX@q.;693::39+.-%8+7;;9>+.1;<8$+",
"-.% 5O O<$2=.899O8*3+9%qX>XO5:<.",
"=q.66+$:6:7q.#++382:99=0o1=  =5-",
"-&0oO*&%$=3 1q-o1q7.596,<,=1.>64",
"3-+975+X409,9:<:5-0 q# q4#-2:6q%",
"%&0<-o<;5o3&2426085<#;7+=0@&= --",
">89Xoq$.0;><6$3q2o--+&,.X;;+=%95"
};
