/* XPM */
static char *result[] = {
/* columns rows colors chars-per-pixel */
"32 32 10 1 ",
"  c #BF4830",
". c #C28569",
"X c #B9704F",
"o c #A54633",
"O c #D77643",
"+ c #B53E30",
"@ c #BC563A",
"# c #BE492F",
"$ c #A22633",
"% c white",
/* pixels */
"       .        X.      .      .",
"o   o  Oo X      .X    XO      O",
"      XOX  o   XX.X  o X.X oo  O",
"...OO..OOO..OOO..OOO......OOO..O",
" .XX    o.X        .X      .    ",
" .X      .X     XX .      X.    ",
" .      O.Xoo O    .X      .o   ",
".....OO............O....OO.O..OO",
"     .o  XX.+X       .@o     .  ",
"     .#    .+       X.@     X.  ",
"  X  .     .+@      O.o    X Oo ",
".OOO..OOOO.O..............OOOO..",
"  .o   X .      .XX    .X  .    ",
"  .   o  .$    o.      .   .    ",
"  .o     .$     .O     .X  .o   ",
"..O..O.O...................O....",
"   XX.     .  X    .X       .   ",
" o o .    X.@X$    .o# X    O   ",
"     .O  XX.+     o.X       Ooo ",
".O...O......................OOO.",
" .      .o     X .Xo      .     ",
" .      OX       .        .    +",
" .X X  X.$ $   o .$      XOo   +",
".O..OO..O...OOOO.....O.O.....O..",
"o    .o      .X     XO       . +",
"     . X     O      XOX      . +",
"  oXX.$     X.oo     .$$ XO o. $",
"...O.........O.....O..OO....O...",
"   O   X  X.o     X.X     X.   $",
"   .       .       .      X.    ",
" ooO       .o      .X o    .    ",
"...OO...O..O......O....OOO......"
};
