/* XPM */
static char *result[] = {
/* columns rows colors chars-per-pixel */
"32 32 20 1 ",
"  c #433119",
". c #C7C5A7",
"X c #A1957A",
"o c #9A8B6E",
"O c #948465",
"+ c #4D401F",
"@ c #85755C",
"# c #7A6E58",
"$ c #916A3B",
"% c #78652B",
"& c #4D381C",
"* c #736244",
"= c #664839",
"- c #C3C1A2",
"; c #5E352D",
": c #C5A260",
"> c #595652",
", c #382F24",
"< c #371A17",
"1 c white",
/* pixels */
" .XoXoOOO .XoXoOOOOOOo .XoXoOOOO",
"+X@@@@@@#+X@@@@@@@@@@#+X@@@@@@@@",
"+o@@@@@@#+o@@@@@@@@@@#+o@@@@$@@@",
"+X@#@#@#$+X@@@#@@#@#@$+X@@#@#@@#",
"+o$#@#$%$+o@$@#@#$#@$%+o#@@#$#$#",
"&O%$$$%%%&O@%$#$#%$$%%&O#$$$%$%$",
"&&+&++&+& &+&++++++++& &++++&+&&",
"@*=*-XoOoO*;@-XoXoOoOO*;-:XoooOO",
"@#*-:O@@@@@=-ooO@@@@@##=:o@@@#@#",
"#*=XO@#@##*=XoO@@#@#*#*==@@####*",
"**=oO@@##**=oO@@#@#*#*>=+=>#*#**",
"==+O@@##*#*=O@@@@###*#*=++=+====",
"@=+@@##*#*>==@@@###*#*>;=-:XoooO",
"#*=+@@##*>>++=*@@#***>+=oXoO@@@@",
"*#*#+=>=OOOXo#=**>*>>++=@oO@#@##",
"#*#*=+*:XoO@#*#=+++    ===@@###*",
"***=+*-:oO@@@#***+  ,<, & =@##*#",
">==+=O:oO@@#*#*#* <,<,  &&===*>*",
"XoO@=@oO@@@@#*#*> ,<<, &++=-oO@@",
"@@@*=#@@#*#**#*>= &<<<&++=-oXOOO",
"#*#**==######*>=== &<,  &=oO@@@@",
"##*#=+ +=****==o@=&  ,,&+=O@#@##",
"#*=+  ,,&,&&=Xo@@## &   &===***#",
"*= &,,<,,&+:oo@###*>==oXooOO===*",
"OO=+&,,<,&+o@@###*>==:O@@@@@#*>>",
":oO=+&,,,,==#**>===+-O@@##*#**=-",
"oO@@=+&&&&=>+===*oO=o@@##*#**>+:",
"==**@@@@*=>==*XoO@@#==#***>==+++",
"-:=====+=++*:oO@@@@@#+=====*XoO>",
":ooOo#==++*-OO@@@####=+=*XoO@@@>",
"O##@@#*#*+:oO@@@###***+*:O@@#*#=",
"O@###****=oO@@@###*#**=-O@@#*#*+"
};
