/* XPM */
static char *result[] = {
/* columns rows colors chars-per-pixel */
"32 32 10 1 ",
"  c #8B9BB4",
". c #6B7B98",
"X c #ADBACE",
"o c #9EACC2",
"O c #9CA8BE",
"+ c #7A89A4",
"@ c #C0CBDC",
"# c #E9E5E1",
"$ c #7E8CA6",
"% c white",
/* pixels */
"     .X ooo  .O.     +.X     .X ",
"..  .O o    .O@O.   +.XX..  .O o",
"XO..OX.    .O@@@O. +.XXOXO..OX. ",
" X@@XXO....O    @O..X@   X@@XXO.",
"@+X@@@@XXXX @#@o @OOX #@@+X@@@@X",
"oo+XX   @@ @oooo $X@ #oooo+XX   ",
"oo X #@@ @$ o    .@ @ooooo X #@@",
"  +X @ooo @$     .@  o    +X @oo",
"  +X @ooo $X$   .X@.   o  +X @oo",
" +.X @o o  $X...X@XO.    +.X @o ",
"..OX @     $OXXX   XO.....OX @  ",
"OOXX+ o   +.O@  #@o XOOOOOXX+ o ",
"@@@X.+  +++.O @#oooo @@@@@@X.+  ",
"  +@X......OO oooo  +@    +@X...",
"#@ +@XXOOOX@X. o   +. #@#@ +@XXO",
"ooo X@       X.   +.O @oooo X@  ",
"ooo X ##@@@XX X....O oooooo X ##",
"   +X @oooo  +@@XXX@ ooo   +X @o",
" o+.X ooo   +.XX   X.  o o+.X oo",
"++.O@.    +..O@ #@@ X. +++.O@.  ",
"..O@@O.....OOX @oooo+X....O@@O..",
"OO    XOOOOXXX @oooo +OOOO    XO",
" @#@o  XX    X. o      @ @#@o  X",
"oooooo.@ #@@o @.    oo+@oooooo.@",
"     .X ooo  .O.     +.X     .X ",
"..  .O o    .O@O.   +.XX..  .O o",
"XO..OX.    .O@@@O. +.XXOXO..OX. ",
" X@@XXO....O    @O..X@   X@@XXO.",
"@+X@@@@XXXX @#@o @OOX #@@+X@@@@X",
"oo+XX   @@ @oooo $X@ #oooo+XX   ",
"oo X #@@ @$ o    .@ @ooooo X #@@",
"  +X @ooo @$     .@  o    +X @oo"
};
