/* XPM */
static char *result[] = {
/* columns rows colors chars-per-pixel */
"32 32 4 1 ",
"  c #181425",
". c #BE4A2F",
"X c #733E39",
"o c white",
/* pixels */
" ........ .... ........X........",
"........ ...... ......XX....... ",
"....... ........XXXXXXXX......X.",
"...... .........X.....XXX....XX.",
"      ......... .......XXXXXXXXX",
"....  ........ .........XX......",
"..... ....... ..........X.......",
"...... .....X...........X.......",
"....... ...XX...........X.......",
"........XXXXXX......... . ......",
"........X..... ....... ... .....",
"....... ....... ..... ..... ....",
"...... .........XXXXX....... ...",
"..... ...........XXX......... ..",
"....X............XXX.......... .",
"XXXXX........... ..X...........X",
"...XX.......... .... ..........X",
"....X......... ...... ........ .",
"..... ....... ........ ...... ..",
".....  ..... ..........XXXXXX...",
".....        ..........XX...X...",
".... ......  ..........X..... ..",
"... ........ ......... ....... .",
"..  ......... ....... ......... ",
"    .......... .....X.......... ",
"..  ...........XXXXXX......... .",
"... ...........XX...X........ ..",
"....X..........X..... ...... ...",
"....XX........ ....... .... ....",
"...XXXXXXXXXXX.........    .....",
".. ......XXXX...........  ......",
". ........X.. .......... ......."
};
