/* XPM */
static char *result[] = {
/* columns rows colors chars-per-pixel */
"32 32 39 1 ",
"  c black",
". c #000100",
"X c #010101",
"o c #030300",
"O c #030400",
"+ c #101000",
"@ c #272604",
"# c #262704",
"$ c #333202",
"% c #333402",
"& c #363605",
"* c #373705",
"= c gray23",
"- c gray24",
"; c #3E3E3E",
": c #5A5A1B",
"> c #CBCA39",
", c #CBCA3B",
"< c #FDFE34",
"1 c #FDFE35",
"2 c #FEFD36",
"3 c #FFFD36",
"4 c #FDFE36",
"5 c #FCFF36",
"6 c #FDFD38",
"7 c #FEFD38",
"8 c #FDFE38",
"9 c #FDFD3A",
"0 c #FCFD3E",
"q c #E4E24F",
"w c #F7F747",
"e c #F7F847",
"r c #FBFB49",
"t c #FBFA4A",
"y c #E3E250",
"u c #F3F3F3",
"i c gray98",
"p c #FDFDFD",
"a c #FEFEFE",
/* pixels */
"aaaaaaaaaaaaaaaaaaaaaaaaaaaaaaaa",
"aaaaaaaaaaaaai    iaaaaaaaaaaaaa",
"aaaaaaaaaa   w4444e   aaaaaaaaaa",
"aaaaaaaaX 744444444448 Xaaaaaaaa",
"aaaaaaa :44444444444444: aaaaaaa",
"aaaaaa 444444444444444444 aaaaaa",
"aaaaa 44444444444444444444 aaaaa",
"aaaa 8444420444444440444449 aaaa",
"aaaa 44444   444444   44444 aaaa",
"aaa 44444>   444441   ,44444 aaa",
"aaa 44444o   q4444y   O44444 aaa",
"aa-t444444   444444   144444r;aa",
"aa 4444444  .444444.  4444444 aa",
"aa 44444444444444444444444444 aa",
"aa 44444444444444444444444444 aa",
"aa 44444444444444444444444444 aa",
"aa 44@44444444444444444444#44 aa",
"aa 44 44444444444444444444 44 aa",
"aaa 44 444444444444444444 44 aaa",
"aaa 44 544444444444444444 44 aaa",
"aaa=+44 4444444444444444 44+-aaa",
"aaaa 44$ 44444444444444 %44 aaaa",
"aaaaa 44& 544444444444 *44 aaaaa",
"aaaaap 345  44444414  44< paaaaa",
"aaaaaaa.4446        6444 aaaaaaa",
"aaaaaaaa o4444<4444444o aaaaaaaa",
"aaaaaaaaau  44444445  uaaaaaaaaa",
"aaaaaaaaaaaa        aaaaaaaaaaaa",
"aaaaaaaaaaaaaaaaaaaaaaaaaaaaaaaa",
"aaaaaaaaaaaaaaaaaaaaaaaaaaaaaaaa",
"aaaaaaaaaaaaaaaaaaaaaaaaaaaaaaaa",
"aaaaaaaaaaaaaaaaaaaaaaaaaaaaaaaa"
};
