/* XPM */
static char *c7ca369bb0cc4b00803cf48a37775b4bzoj6EF8AxxZyQjSU[] = {
/* columns rows colors chars-per-pixel */
"32 32 24 1 ",
"  c #3D1D04",
". c #412109",
"X c #592A05",
"o c #5C2E0A",
"O c #463505",
"+ c #184E05",
"@ c #055905",
"# c #055E05",
"$ c #0A5C0A",
"% c #056305",
"& c #216C21",
"* c #3C7D3C",
"= c #058205",
"- c #098709",
"; c #20A120",
": c #28AB28",
"> c #BCD0BC",
", c #BCDABC",
"< c #CDC6C0",
"1 c #C4E4C4",
"2 c #EFF2EF",
"3 c #F4F3F2",
"4 c #F0F4F0",
"5 c gray97",
/* pixels */
"55555555555555555555555555555555",
"55555555555555555555555555555555",
"55555555555555555555555555555555",
"55555555555555555555555555555555",
"55555555555555555555555555555555",
"5555555555555==:::55555555555555",
"55555555555======::==::555555555",
"55555555========:====:::55555555",
"5555554::============::::1555555",
"5555554::======@@======:::555555",
"555555========@@@========;555555",
"5555,========@@@@========;555555",
"555@@==@===@@@@  @@==@@=:::::555",
"55@@@@=@@==@@@   @@@@@@====-::55",
"55@@@@@@@@@@@ @@@@@@======@#=555",
"5555>@@@ @@@@    @@@======@@@555",
"5555552@@  5@ XXX@@@@====%@&5555",
"55555555555 5 XXX@@@@XX@@@555555",
"55555555555 < XXX@@@+OO@@*555555",
"555555555555  XXX55X@@@555555555",
"555555555555. XXX33o$$$555555555",
"5555555555555 XXX555555555555555",
"5555555555555 XXX555555555555555",
"5555555555555 XXX555555555555555",
"5555555555555 XXX555555555555555",
"5555555555555 XXX555555555555555",
"5555555555555 XXX555555555555555",
"5555555555555 XXX555555555555555",
"5555555555555 XXX555555555555555",
"5555555555555 XXX555555555555555",
"555555555555  XXXX55555555555555",
"555555555     XXXXX5555555555555"
};
