/* XPM */
static char *result[] = {
/* columns rows colors chars-per-pixel */
"32 32 132 2 ",
"   c #222222",
".  c #2C2C2C",
"X  c #3C352D",
"o  c #333333",
"O  c #3A3A3A",
"+  c #5E0000",
"@  c #561008",
"#  c #700000",
"$  c #583018",
"%  c #523C1C",
"&  c #652110",
"*  c #4A3E35",
"=  c #7A3C20",
"-  c #5C401F",
";  c #5D4120",
":  c #644423",
">  c #694724",
",  c #6E4926",
"<  c #794124",
"1  c #734D29",
"2  c #7A4F2A",
"3  c #7D512C",
"4  c #7B593E",
"5  c #424242",
"6  c #4A4A4A",
"7  c #535353",
"8  c #5C5C5C",
"9  c #765C42",
"0  c #6B645C",
"q  c #736254",
"w  c #736959",
"e  c #636363",
"r  c #696969",
"t  c #736F67",
"y  c #7F6E62",
"u  c #737373",
"i  c #7D7D7D",
"p  c #850000",
"a  c #940000",
"s  c #9A0F07",
"d  c #8D1F1F",
"f  c #8C3A1F",
"g  c #AD2626",
"h  c #974A2B",
"j  c #83542E",
"k  c #895731",
"l  c #8B5932",
"z  c #825639",
"x  c #945D35",
"c  c #995F37",
"v  c #AE5533",
"b  c #986037",
"n  c #9D6239",
"m  c #A3663C",
"M  c #A6693E",
"N  c #A8693E",
"B  c #8C5757",
"V  c #AA5656",
"C  c #946648",
"Z  c #8D6F5B",
"A  c #AC6C41",
"S  c #A16F4E",
"D  c #B16E43",
"F  c #B47044",
"G  c #BA7347",
"H  c #BD7848",
"J  c #B17955",
"K  c #BC7D52",
"L  c #BA7F5A",
"P  c #867260",
"I  c #957A66",
"U  c #8C7D73",
"Y  c #D5574B",
"T  c #C47A4B",
"R  c #CB7E4D",
"E  c #BA815D",
"W  c #8F8076",
"Q  c #9B8573",
"!  c #B28364",
"~  c #BA9076",
"^  c #CF814F",
"/  c #D0814F",
"(  c #CD8151",
")  c #D28352",
"_  c #DC8654",
"`  c #DC8A56",
"'  c #DF8D59",
"]  c #E28A56",
"[  c #E4925F",
"{  c #EE925B",
"}  c #F1945C",
"|  c #F6985E",
" . c #C68963",
".. c #CB8C65",
"X. c #D08E67",
"o. c #D69369",
"O. c #DD976C",
"+. c #C4967A",
"@. c #CA9A7C",
"#. c #DB9B73",
"$. c #EC9966",
"%. c #EC9C6A",
"&. c #F19964",
"*. c #F99C63",
"=. c #DCA27C",
"-. c #FCA36C",
";. c #F4A271",
":. c #F9A977",
">. c #FBAA78",
",. c #848484",
"<. c gray55",
"1. c #949494",
"2. c #989898",
"3. c #A49185",
"4. c #A99487",
"5. c #AE9789",
"6. c #BF9A84",
"7. c #B1998A",
"8. c #A4A4A4",
"9. c #ABABAB",
"0. c gray70",
"q. c #BBBBBB",
"w. c #C5A08B",
"e. c #D9A383",
"r. c #FCB284",
"t. c #FCB589",
"y. c #E3B79D",
"u. c #FCBB95",
"i. c gray76",
"p. c #CDCDCD",
"a. c #D2D2D2",
"s. c #DBDBDB",
/* pixels */
"5 O O 5 5 5 5 O O o . . O 5 O O O O 5 ; 5 O 5 5 O 5 5 5 O 5 5 O ",
"2.s.p.p.p.q.9.9.9.9.2.e e 1.8.8.8.8.i 8 e i 8.8.,.u e 1.1.<.,.i ",
"2.i.2.2.9.<.8 u u u e r e r r r r r r 8 8 8 8 8 8 8 o 0.q.q.q.q.",
",.9.8.2.2.,.u 2.2.2.2.2.2.2.2.2.2.2.2.2.2.2.2.2.2.2.O i 2.1.2.1.",
"u 8.1.1.2.<.u 2.2.2.2.2.,.8 o o o 5 e i 2.2.2.2.2.2.5 ,.8.2.2.<.",
"5 9.<.8.<.<.r 2.2.2.2.4.q . 5 8 7 O o o i 2.2.2.2.1.5 i ,.i i u ",
"5 ,.i u ,.,.r 2.2.2.2.#.t.e.J y 8 5 8 o . <.1.2.2.2.5 7 5 O O . ",
"o   . o O e r 2.2.2.7.>.u.t...O O o o o   e 2.2.2.2.5   . . . O ",
"0.2.i 7 O 8 e 2.2.2.3.1 X.t.r./ m z *     8 2.2.2.2.5 7 7 u 8.p.",
"i.p.s.s.s.9.r 2.2.2.y.L %.:.:.{ R R ,   o i 2.2.1.2.6 5 i a.i.8.",
"2.2.2.8.8.1.e 2.2.w.=.' $.-.} _ ) R %   8 2.2.2.2.2.6 5 ,.p.2.2.",
"1.2.8.8.8.<.r 2.2.2.0 K &.*.] T ) l : X <.2.2.2.2.2.6 O <.q.2.2.",
"2.1.1.2.1.<.r 2.2.2.6.*.>.} G n ) A , q 2.2.2.2.2.2.5 O 1.q.2.1.",
"7 7 e u r u r 2.2.2.6.;./ D c G :.` n 1 <.2.2.2.2.2.6 o ,.i 7 7 ",
"      . . 7 r 2.2.2.2.2.I c N [ A x j > 1 q <.2.2.2.6 .         ",
"7 6 O O o 7 e 2.2.2.2.<.E T R n x 2 l A A n z t <.1.6 r 1.1.8 6 ",
"7 9.a.s.s.8.8 2.2.2.<.S H R F j k A D m N F F n 4 1.6 1.q.2.5 5 ",
"6 a.8.8.8.i 8 2.2.1.4 m m ( j n D D n 2 n x x j j P 6 W 1.r . O ",
"6 s.2.2.1.,.8 2.2.W l j k 3 D F F A 3 1 G F N n 2 w 6 <.2.u . O ",
"6 9.i 1.<.,.8 2.2.Z x , b F H F F n : G G T b m > w 5 ,.2.i . O ",
"7 5 O r u u 8 2.1.n k k F T H M l 1 Q ! T A n n ; t 6 ,.8.u . O ",
"7 7 O . . 7 8 2.U x k l m 1 1 l 9 U 7 q.Y j m x % ,.6 i <.u . O ",
"7 7 7 5 5 7 8 2.C A 3 m H N b = g <.7 e V a h k % 2.5 6 5 6 . O ",
"i p.p.i.8.,.8 1.A b k A H A l v d B i 8.d p # : ; 2.6         5 ",
"<.s.0.9.0.2.8 ~ T n A b x _ G R A f s a p # + $ , 2.5 O O O 5 5 ",
"<.9.1.2.8.i 8 2. . .( m ^ _ R _ ) b - p # + $ > z 2.6 1.i.i.q.5 ",
"<.q.2.1.2.i 8 2.2.2.2.( T F m c m k > & @ : , k F 2.6 <.2.1.1.O ",
"<.0.1.1.1.,.8 2.2.2.2.5. .) ( R F m x < 3 k N / o.2.6 i 2.2.2.O ",
"<.0.2.<.<.i 8 2.2.2.2.2.2.2.O.| +.+.X._ _ ) @.2.2.2.6 u i i r O ",
"<.0.<.1.2.,.6 u u i i i W ,.,.i ,.,.,.,.,.,.,.,.,.,.6 O O O O   ",
"e u 7 7 6 7 o .                             . . . . . . . . . o ",
"O . . . . . . . O 5 o o o . o o o . o o . 5 5 5 6 5 5 6 5 6 5 6 "
};
