/* XPM */
static char *ashberry1609233560[] = {
/* columns rows colors chars-per-pixel */
"32 32 10 1 ",
"  c None",
". c #4D3C16",
"X c #395827",
"o c #654F1C",
"O c #437525",
"+ c #6D624A",
"@ c #A01818",
"# c #C82B2B",
"$ c #1FA018",
"% c #548C33",
/* pixels */
"             X$ X  $            ",
"         $XXO XXOOXX@ $         ",
"          O OO%@OX$##%%%        ",
"         O@@XX##+$$$%%.         ",
"      O%@#O%X$$%X@XOO.O@        ",
"     $OXXXO%%XX.+@@O$OO##       ",
"     X X$XXX$$%..O$@$O$OX       ",
"        X.$@@$%%.OO##$X..XX     ",
"    XOX@X$##+OOO+$X$+$%@XXXX    ",
"     O##O$X$.$$@@@%@.OOO@%@X    ",
"      X%OO@@.o$X$X%O.O.##%##    ",
"      .OO$###.$%%X$o.$X..%      ",
"       .O.$O$.O.%X..@@$OO..     ",
"      XX.$%OO@@.$O.##O$O.@..    ",
"       X@.%X$@$.$O%$$OO.##%@@   ",
"       #@@%%$$O$$@@XX$$XO %     ",
"        XX.%++@.OO+%%O%X@X      ",
"      XOOXX$$.###$.%X$%##XX     ",
"     X@@O.OO$...O+.@@$XXO X     ",
"     ##X%X..$O..+. %X$#.OO      ",
"     X%X%. OO O... %$$##X       ",
"      %       ...   @@X%XX      ",
"              ..     @%%@       ",
"              ..      X@@       ",
"              .+                ",
"              .+                ",
"              .+                ",
"              .+                ",
"              .+                ",
"              .+                ",
"              .+                ",
"              .+                "
};
