/* XPM */
static char *cedar1609233561[] = {
/* columns rows colors chars-per-pixel */
"32 32 10 1 ",
"  c None",
". c #293017",
"X c #633B0D",
"o c #384121",
"O c #494123",
"+ c #4B5B24",
"@ c #7B552A",
"# c #5C7127",
"$ c #6A8428",
"% c #7C9739",
/* pixels */
"            o  +oo              ",
"          + o++o%#%             ",
"          +#o+.%##              ",
"         . +ooo+#%+%            ",
"        +...#o.+%++%            ",
"       ++...#%oo+#% + o         ",
"        +##.##+++# ++oo         ",
"       o +#oo.%+##++oo          ",
"      +o+#+$$.oo+++%            ",
"     ..oo#$$$%#oo%+             ",
"      .ooo..$o##o++             ",
"       oooo.$o%%++  .oo         ",
"       #o##oo%oo#..++o          ",
"      .+..#%oo%##++%            ",
"     +. o.#%#o%#%               ",
"      o+o..#o%###%++o           ",
"     +o +#.ooo##+++o            ",
"    . #o#++ooo#%##              ",
"    ...#.o$oo%o## %+ %          ",
"     .+##.o$o%%# %++o           ",
"       o+#ooo%+++++oo           ",
"     ..oo#$%oo%% oo             ",
"       ......o%##% %            ",
"            ..%#                ",
"             +.+                ",
"             OO                 ",
"             @O                 ",
"             @O                 ",
"            OXO                 ",
"            X@O                 ",
"            XOO                 ",
"            @OO                 "
};
