/* XPM */
static char *coconut_palm1609233561[] = {
/* columns rows colors chars-per-pixel */
"32 32 10 1 ",
"  c None",
". c #3C3410",
"X c #346B23",
"o c #50461C",
"O c #67591F",
"+ c #70642D",
"@ c #746939",
"# c #8C7E3F",
"$ c #498F33",
"% c #57AB37",
/* pixels */
"                X$$$         %XX",
"               X$$        %%XXX ",
"%  % %X      XX%$$$    %%XXX$%  ",
"%X %X %X    XX%     %%XXXXX$$%X ",
" %XXXX%$X  X%%%%   %XXXXX$$X    ",
"$$$$X$XX$$ XX    %XXX$$$$$ XX   ",
" %XX$X%$XX$%XX XXX$$$$  XX  X   ",
"%$X$$X$$X XXXXXXXX       X      ",
"$ $$X $  XXX#.%X%XX%%%%%        ",
"  $   $ XX%#+..X%XXX%$X         ",
"       XX%..++.XX%XXX%$%        ",
"     XXX#++.+.. X%X%XX%$$%      ",
"    XXX%#++...oo  XX%XX%$       ",
"   XX%$%#+..   o   X%X%X%$%     ",
"   X$%$  ..    Oo  X X%XX%$     ",
"  XX$ $         oo   X XXX%%    ",
" XX%$           Oo      X %$    ",
"XXX%            @Oo        %    ",
"X $              Oo             ",
"%                @o.            ",
"%                 oo.           ",
"                  oOo           ",
"                   Oo           ",
"                   @O.          ",
"                   @.o          ",
"                    o.          ",
"                    O..         ",
"                    Ooo         ",
"                    @@.         ",
"                    @Oo.        ",
"                    oOo.        ",
"                    ooo.        "
};
