/* XPM */
static char *dead_tree1609233561[] = {
/* columns rows colors chars-per-pixel */
"32 32 6 1 ",
"  c None",
". c #18160D",
"X c #302B18",
"o c #333024",
"O c #453C19",
"+ c #514928",
/* pixels */
"                         ooooo  ",
"                        ..   .o ",
"                  X     o     . ",
"                 .X.    o ..    ",
"          X      . ..  Oo .     ",
"        ....     X  O O..X.     ",
"      XX.  ..    X  OO.         ",
"    XX..    .X      O.          ",
"   XX  ..   ..     O.           ",
"  XX    .   XX    O.         O  ",
"  X     X    X  O..    XX   O...",
"             XXO.        X O.  .",
"              X.    XXX  XO.    ",
"              X.      O  O.     ",
"              X.     OO OOXO    ",
"             XX. XXX O  O  ..   ",
"             X.OOO XOOOOX   .   ",
"      OO... XXXXX          .O   ",
"    OOO   ..X..           .O    ",
"   O.      ..O..          O     ",
"   .         O..O               ",
"   ..        OO..  X            ",
"  OO.         O.. XX            ",
"  O .        O+.OOXX            ",
" OO ..      O+..O..             ",
"oO         O+.O..               ",
"o          O.O..                ",
"o          O.O..                ",
"           O.+O.O               ",
"            +.O.O               ",
"            +.O..               ",
"           ++.OO.O              "
};
