/* XPM */
static char *mangrove1609233561[] = {
/* columns rows colors chars-per-pixel */
"32 32 11 1 ",
"  c None",
". c #40381E",
"X c #22451D",
"o c #275021",
"O c #316429",
"+ c #54422E",
"@ c #63593B",
"# c #53794D",
"$ c #6D6051",
"% c #518A48",
"& c #589B4E",
/* pixels */
"           O&  #  &# & # #OO  O ",
"          O###O##O%#&O&#&#O%##OO",
"        O##O#O&O#O%#O&##O&%##OO#",
"      # OO#&O&OO#O#OO##&OO&#OO##",
"     O#####%%##O#O#OO%OO#%&%OO& ",
"      &OO#OO%X#O.XX##%O##OO%##  ",
"     &O###.O#OX..OXO#X%#O%#O# O ",
"      %#O#.+##o.OXOO#X%X%%OO#OO ",
"     %%#O#X..o.+%XO##OOX###O%%##",
"      O#&XX#++..%XO+OX.##OOO%%  ",
"       O&O##o...X%%+X..OX%##O   ",
"    ### %O%%X%+.XXX...XX#%OO%%  ",
"   %%#+O %XX%%......%X###%%##%  ",
"   %%O++X&OX%O.+..XX %X%OOO     ",
"    O++.XO&XOO+.. #    %%###    ",
"  ##++X..O# XX ..  #    X       ",
"    #O#X....   ..               ",
"    ### #XX....+..              ",
"        #X##  ....              ",
"                +.+             ",
"                @..             ",
"               @+..             ",
"            +......+            ",
"        +.....  ...++           ",
"       +.   $   .  .++          ",
"      ..   $  ...    +.         ",
"  $$$+.  +..... ..   ....       ",
" $$ +.  ..  +.   .    . ..      ",
" $  . $+.   .$$  .. ++.  .+++   ",
"$$  . + ++ +. $   .$+ .   ..++  ",
"$  .. +  $..  $  $$+  .$$  . ++ ",
"$  .  +  +.   $  $ +  + $  .  ++"
};
