/* XPM */
static char *oak1609233562[] = {
/* columns rows colors chars-per-pixel */
"32 32 11 1 ",
"  c None",
". c #271C16",
"X c #263410",
"o c #3C2D25",
"O c #443825",
"+ c #3A4B21",
"@ c #4A5D2E",
"# c #5F523F",
"$ c #68743F",
"% c #859A3D",
"& c #9FBA45",
/* pixels */
"       $$    @  @+ $            ",
"      $$$ %% @@@@@$@@+  @@ +    ",
"    @@@@@@@$@++%+@$+@  $@X@@ +  ",
"     %%&@@$$@%++@@%+@ @@@X@ +   ",
"   @%@@@&$$&#&%$$+$+@@@&++@+    ",
"  %@&@@@%&@&O#+%+o$X+@&X@@@  $  ",
"    %%&@@%@%$O#$$o%X+@X+@&+ $$  ",
"    &%%&@@&%$$O#+o%X%%+@+ $$+@@ ",
"     %@@@&@%XX&$oo%X%o@@@@@@@+@ ",
"    @@&&%&@@&XX$$%++oo%%X@@@+@@ ",
"   @ %%&@@@@@%%%$X$oo+@X$@+$$@@@",
"     @@@@@$$$@@#+X$o+@@+$+XX@@  ",
"    $$@%%%@@$$@#o$$+$+XXXXXX@@  ",
"@ & $%&$$%@@$@%#oo$X$XX$X@@@@   ",
"@@&$$@%&$&@@%%%#ooXX$$%X@@@@@   ",
" @@@@@%%$&@@$$##ooX$X%@XX @     ",
"@@%&%&$$&X&@@$%oooX$$@@@        ",
"@@ @%&%&#XX%&%%oo+@$@@+$$@$     ",
" @@@@%@&##X%%%OO@X@X%%X+$$$+$   ",
" @  @@@%@ ## %O@@X@XXXX$$++ $$@ ",
"     @@@@@ ##oO@ooo.o++@X@@@ @@ ",
"    @@       oOoo.o oo++$X@X$   ",
"             #Ooooo  ooo$XXX$   ",
"             #Ooo.o   @@+$@@ @  ",
"             #Ooo..    @@@@X@   ",
"            ##OOo.o    +  @@    ",
"            #OO..o.             ",
"            #OOo.o.             ",
"           ##OOo.o.             ",
"           #OOOOoo..            ",
"           #OOOOo.....          ",
"         ###OOOOOooo...o        "
};
