/* XPM */
static char *poplar1609233562[] = {
/* columns rows colors chars-per-pixel */
"32 32 11 1 ",
"  c None",
". c #271A13",
"X c #3B291F",
"o c #316C1F",
"O c #756257",
"+ c #3D8427",
"@ c #6DB824",
"# c #5EC23F",
"$ c #7AD225",
"% c #7DEC5A",
"& c #B3C363",
/* pixels */
"              %                 ",
"        #    +o     o           ",
"        #    #&    o#           ",
"        $o   &&%   #$           ",
"         ##   %   ++            ",
"         $+o o%$ $o&   #&       ",
"          o@@o#$&&#$   o#       ",
"    o   $ ##@o&$&$#&  o+        ",
"    +o   $o++$#&o# $ ##+        ",
"    $$#+$&&&$&o&&o#$o&#         ",
"      o+$$&#o+O&o$##o#&         ",
"      o#o&$o&&oo$#&#$#&$ +$     ",
"       $+o&&#oX&o#O&&$ $ #      ",
"       o&$#O#&X$&O&$&&$#+$      ",
"  $     $&&&O&.&XX$++#+##       ",
"  $+$&$  &+##O..X$o##o#oo       ",
"   #o#++##o# X. $O$$ $          ",
"      o$o#OOo .$ &OOo           ",
"       & #o#OO.                 ",
"              .                 ",
"              .                 ",
"              .                 ",
"              .                 ",
"              .                 ",
"              . X               ",
"              ..X               ",
"              ..                ",
"              .X                ",
"              .X                ",
"            + ..++              ",
"           +++$$+$++            ",
"          +$$$+$$$$++           "
};
