/* XPM */
static char *sakura1609233564[] = {
/* columns rows colors chars-per-pixel */
"32 32 13 1 ",
"  c None",
". c #181710",
"X c #212019",
"o c #333024",
"O c #514E40",
"+ c #C487BF",
"@ c #DBADD7",
"# c #EFBFEB",
"$ c #EBDDEA",
"% c #EAE5E9",
"& c #FBF6FA",
"* c gray99",
"= c white",
/* pixels */
"               +           @ @  ",
"       @ + #  %+@ @ +   % @@#@  ",
"  @# @ @ + @@%@+@ @%+@# ++@#++  ",
"   @#@++@+%%@@@+@#@%#@@+@@=%=+ #",
"+  @@%@++@%+=@@@%%@+=#@+@%++@@  ",
"++@+@###+@@++%+@%#%+@@@+%#+%@%# ",
" +=+@@=#%%@@+%@+@+%@@@#+#%@=+#@@",
"##@+%%+++=@=@#@#@++@#@=@=@@##@@ ",
" #@@+=%@@#%++#+##@%@@=+@@+=#%@# ",
" ++%++++@$+$+%++%%+%#++@#+%%+## ",
" %@@#=+##@$$$.##%@++%+#@@++@@@+@",
"%%=@=###%@@$$o.#.&%%#+@@=%+@+++ ",
" ++#%=@@@%#@@%O%..o#+=@%+%#@@@@ ",
" ##@@%##%#=@##@Ooo+#++%%++##@## ",
" #@@%%%oo.o@@%@%..+=#%oo=@#=@   ",
"#@$++ooo .o#= =O.o..ooo##@++=   ",
" @$==o   .oo   O..oO$=%+# @     ",
" $##@    XXo  Oo..   @@++       ",
"@@# @    o.Xo..Xoo    @@@       ",
"          O.X.X.o      @        ",
"          O..O.oo               ",
"           o.O.o                ",
"           ooooX                ",
"            o..X                ",
"            oO.X                ",
"            .OXo                ",
"           ooXXo                ",
"           o.o.o                ",
"           o.X...               ",
"           oOXoO.               ",
"            O..O.               ",
"            oo.o..              "
};
