/* XPM */
static char *result[] = {
/* columns rows colors chars-per-pixel */
"32 32 7 1 ",
"  c #181425",
". c #2F1F2C",
"X c #3E2731",
"o c #733E39",
"O c #874D40",
"+ c #4E2D33",
"@ c white",
/* pixels */
"  .. XXXXX.....  XXX...  oOOO+++",
"o+   XXXXX.... o+ XX.. o+ XXX.. ",
"o++  XXXXX... oo++ X. oo++ XX. o",
"O+++ XXXXX.. ooO+++  ooO+++ X oo",
"O++++ XXXX. oooO+++ oOOO++++ ooO",
"X..... ... ooooO+++ XXXX..... XX",
"X....   . ooOOOO+++ XXXX.....  X",
"X...  o+ XXXXXXX...  XXX.....   ",
" ..  oo++ XXXXXX...   XX..... oX",
"X   ooo+++ XXXXX.. oo+ X.... ooX",
"XX oooO++++ XXXX. ooo++ ... ooOX",
"XX oooO+++++ XXX oooO+++   oooOX",
"XX oOOO+++++    ooooO++++ ooooOX",
"XX XXXX.....   oooooO++++ ooOOOX",
".. XXXX.....   ooOOOO++++ XXXXX.",
"..  XXX..... o+ XXXXX....  XXXX.",
"X o+ XX.... oo++ XXXX....   XXX.",
" oo++ X... ooO+++ XXX... o++ XX.",
"ooO+++ .. oooO++++ XX.. oo+++ X ",
"OOO++++   oooO+++++    ooO+++  o",
"XXX.....  oOOO++++++  oooO+++  X",
"XXX...... XXXX...... ooooO+++   ",
" XX...... XXXX...... ooOOO+++  o",
"o X......  XXX...... XXXXX... oo",
"o+ ..... o+ XX...... XXXXX... oo",
"O++ ... oo++ X.....  XXXXX... oo",
"O+++   ooo+++ ....   XXXXX..  OO",
"X...  oooo++++    oo+ XXXX.   XX",
"X... ooooO+++++  ooO++     oo XX",
"X... ooooO+++++ oooO+++   ooo+ X",
"X... ooooO+++++ oOOO++++ oooO++ ",
" ... ooOOO+++++ XXXX.... oooO+++"
};
