/* XPM */
static char *apple1609233560[] = {
/* columns rows colors chars-per-pixel */
"32 32 11 1 ",
"  c None",
". c #3C2E1F",
"X c #7C3322",
"o c #38592D",
"O c #3D7B29",
"+ c #59442D",
"@ c #B44329",
"# c #739330",
"$ c #61A24C",
"% c #79A24C",
"& c #DAD02C",
/* pixels */
"                                ",
"                                ",
"          o  o    %  ooo        ",
"       o  oo o  o %%oo#%%#      ",
"      %%o$$o X@oo O%X&%%##o     ",
"     oo%o%$$#O@##$O#@@o#Ooo Oo  ",
"   oo#o#o#OO#OOO$$#O#o$%Oo##Oo  ",
"   $oX&##X@$##&@##OO#$$%%#O#$$%%",
"  % #@@OO@O$$oo@O#$##ooo%OO#$%% ",
"  %OO$$O#%OO$#ooO#$oooX@$$oo#OX&",
"  o#O@%oo%%##OOoo%#o#%OO#$o#OO@@",
" % oX@%XooOO@&O#%%O#%%o#######oo",
" %% #OO@@#O#@@%#ooOO%oo##ooo$$##",
"  oo$$O#$$##oo$$o@&$#o@$o##%%#O ",
"$oo$#$#o#$#O##$$#@@$#X@$##%%ooOO",
"$%$#OX%#%o#OOX$#oO%%##OOX@$OoX@ ",
"%%ooO@o$%o##o@&#oo%oo##OO@$O%%@ ",
" oo#Ooo$##%%oo##$##.oo#$oo###oo ",
" $$##$$++ OOXo+.$$.. ##$#ooo#oo ",
"X&OOO@@#++. @@++  .  #+.+++oo%  ",
"@@oo#...#++.   .. . +..++  X&%% ",
" #o...X......  +. +.. %##% X@   ",
" # #%%@@%%  ..  .+..  %%X&      ",
"   %%  #%     . ...     X@      ",
"              ..+..             ",
"               .+..             ",
"                ...             ",
"                 ...            ",
"                 ...            ",
"                 .++.           ",
"                 ..++.          ",
"                .+..++          "
};
