/* XPM */
static char *baobab1609233560[] = {
/* columns rows colors chars-per-pixel */
"32 32 14 1 ",
"  c None",
". c #17130C",
"X c #252119",
"o c #3B3018",
"O c #4D3C16",
"+ c #294918",
"@ c #346919",
"# c #6C4006",
"$ c #6F4B1C",
"% c #594A28",
"& c #705B2B",
"* c #408A1B",
"= c #5A9C38",
"- c #75AC59",
/* pixels */
"          ** ** - - ***         ",
"         -*****-*****--*--      ",
"  -- - * **@*****=**=@@** - -   ",
"   *********@*-@@@**@*-*****- - ",
"  -*-*@@**-*-*-@--*@@*@**@@***--",
" ***-*@-**---**-@*-*-*@@*@@*-@* ",
" **-@**@@**@@-+*@++@***++@**@@**",
"**O--@*@@**@@@++@+O@@*@$+@$$-*@*",
"*@O$*$+O+@@O@@+$@OO+-@+$$+$O@*+*",
"@*+$$+@O$@@+$$@@$O ++$$+$+$+@@@O",
"**@%%$$O$  +O$$+$O +$$  $OO++-$*",
" *++%%%%$$   O$ $O  $  OOO  $$O*",
"   +   %%$$&&&O  O $$OOO   $OO* ",
"         %$O&$OO$O $OO$$$$OOO+*+",
"          OO&$&ooO$$OOOOOOO   + ",
"          %O&$$&oo&&OOo         ",
"          %oo&$&&o&#&Oo         ",
"          %Oo$$$&oO##Oo         ",
"          %Ooo$$&oO&#&o         ",
"          O&&o&$&ooOO#oo        ",
"         %%$$o$$&Oo#O&&o        ",
"         %&$$o$$o.o##O#o        ",
"        OO$$oO&$O.X&#O#oo       ",
"        $&$oo$oo..Xo#&O#o       ",
"       %$&$o$$oo.XXo&#O#o       ",
"       %$$oo&$oo.XXoO###o       ",
"       %$$o$&$o..XXoo&#oo       ",
"       %$$oO&oo...Xoo&#oo       ",
"       %$$oO&oO...XoO&#oo       ",
"       %$&o$&o....XoO&#oo       ",
"       %%%oo&oXXX..oO#oo        ",
"        %%Oo&OOoooooOooo        "
};
