/* XPM */
static char *s_21609233563[] = {
/* columns rows colors chars-per-pixel */
"32 32 27 1 ",
"  c None",
". c #2E1E22",
"X c #3A3A3A",
"o c #4F3A38",
"O c #534721",
"+ c #265454",
"@ c #505050",
"# c #735552",
"$ c gray38",
"% c #964F00",
"& c #9D704C",
"* c #927670",
"= c #D7906E",
"- c #2D8383",
"; c #309999",
": c #34B2B2",
"> c #928A8C",
", c #BA9F97",
"< c #A7A7A8",
"1 c #EEBE93",
"2 c #FFE1AF",
"3 c #C2C0C3",
"4 c #D4D4D7",
"5 c gray85",
"6 c #D9D9DD",
"7 c #F3F3F5",
"8 c white",
/* pixels */
"                                ",
"            ooooooo             ",
"          oo#######oo           ",
"        oo#*,*****,*#oo         ",
"       o#**,******,*###o        ",
"      o#**,,,****,*###*#o       ",
"     o#****,,,,,#####***#o      ",
"     o**#**#***######*#**o      ",
"    o#*#**#***#22221##*#*#o     ",
"    o##*##***#2222221#**##o     ",
"    o###****#222222221**##o     ",
"   o###***##2222222221*###o     ",
"    o#=###222222222221##=#o     ",
"     o=#=1OOO22222OOO1=#=o      ",
"      O#&15.6222226.51&#O       ",
"       O&18.>22222>.81&O        ",
"        O=1%%22222%%1=O         ",
"        <O=122222221=O<         ",
"       <43O&=11111=&O34<        ",
"      <4773OOOOOOOOO3774<       ",
"     <4773443734373443774<      ",
"     O&44<47434<43474<44&O      ",
"     O11&<47774477774<&11O      ",
"    O&2=OX34774<77773XO=2&O     ",
"    O22&O+@@;$XXX$;@@+O&22O     ",
"    O21O +-;:::::::;-+ O12O     ",
"     OO  +-;;-----;;-+  OO      ",
"          -;:;+++;:;-           ",
"          +;:;+ +;:;+           ",
"          X-;-X X-;-X           ",
"          X$$@X X@$$X           ",
"           XXX   XXX            "
};
