/* XPM */
static char *cypress1609233561[] = {
/* columns rows colors chars-per-pixel */
"32 32 9 1 ",
"  c None",
". c #393623",
"X c #334B22",
"o c #436529",
"O c #567D38",
"+ c #6F9E4C",
"@ c #72AB46",
"# c #88A658",
"$ c #9EBE86",
/* pixels */
"              O+                ",
"              O+O               ",
"             X+OO               ",
"             XoO#O              ",
"            O+o+OO              ",
"             o++O               ",
"           X+O+#O@              ",
"           X+#+O+@O             ",
"           +o##O+OO             ",
"          X+++#O+O              ",
"          XOOX+OOO+O            ",
"         OooXXX#$+OO            ",
"         XO+X#o#O+O+            ",
"        OXOOXO+#O#++O           ",
"         XoO#O#OO##+O           ",
"         OooXO#OO##O#O          ",
"        oX+#XOOO##+O#O          ",
"         XO##O$O#O++O           ",
"         oO++O#O$O###           ",
"         o+O+$##$OO#OO          ",
"        oXX+oo##O$O+O           ",
"         oX+Oo$#O$O++           ",
"         oOoOXX$$#$#+O          ",
"         OOo#$XO$O##O           ",
"          O+#OXO$##+O           ",
"         oo++OO$##+OO           ",
"          o+o#XO#++O            ",
"          OXooX$#+OO            ",
"           XXoX##+O             ",
"            XoO+OO              ",
"             XXXX               ",
"              ..                "
};
