/* XPM */
static char *s_61609233563[] = {
/* columns rows colors chars-per-pixel */
"32 32 8 1 ",
"  c None",
". c #AD7338",
"X c #D1812E",
"o c #DF9D35",
"O c #FBAE36",
"+ c #FBC236",
"@ c #FBF236",
"# c #FFF75B",
/* pixels */
"                                ",
"                                ",
"            oooooooo            ",
"          oo########oo          ",
"        oo####@@@@@@##oo        ",
"       o####@@@@@XXXXX##o       ",
"      o###@@@@@XX     XX#o      ",
"     o###@@@@XX         XXo     ",
"    o###@@@@X                   ",
"    o##@@@@@X                   ",
"   o##@@@@@X                    ",
"   o#@@@@@@X                    ",
"  o##@@@@@X                     ",
"  o#@@@@@@X                  X  ",
"  o@@@@@@@X                  X  ",
"  o@@@@@@@X                 X.  ",
"  X@@@@@@@X                 X.  ",
"  o+@@@@@@@X               X+.  ",
"  X+@@@@@@@X               X+.  ",
"  X++@@@@@@@X             X+O.  ",
"   X++@@@@@@X             X+.   ",
"   X++++@@@@@XX         XX+O.   ",
"    X+++++@@@@@XX     XX++O.    ",
"    XO+++++++@@@@XXXXX+++OO.    ",
"     XOO+++++++++++++++++O.     ",
"      XOO+++++++++++++++O.      ",
"       XOOO++++++++++OOO.       ",
"        ..OOOOOOOOOOOO..        ",
"          ..OOOOOOOO..          ",
"            ........            ",
"                                ",
"                                "
};
