/* XPM */
static char *sea_buckthorn1609233564[] = {
/* columns rows colors chars-per-pixel */
"32 32 6 1 ",
"  c None",
". c #302D20",
"X c #494531",
"o c #3F7947",
"O c #60AC6A",
"+ c #E78A36",
/* pixels */
"                         O      ",
"                         oO     ",
"                          .     ",
"                  O    OO .Oo   ",
"        O         O     oo.o    ",
"        O      O OO      o.     ",
"        oO     O+.        .     ",
"       +Oo    O ..OO    OO.+    ",
"        o+Oo  O+.        o.+oO  ",
"      Oo+Oo   O.O        +.oO   ",
"        o.   .+O      OO ..     ",
"         .+ +.o        o+.      ",
"    Oo  O+. ..oOO      o.+oO    ",
"    +o+ OO.+.o          .oO     ",
"      XO  +.       Oo+ ++       ",
"     o+Ooo .+    o  O+..        ",
"    OOo+Xo ..    o+....+        ",
"       +.O +.     ..+Oo         ",
"       OO.XX. +  +.+  O         ",
"         o+...o +.oO            ",
"          o+ .  ..+             ",
"             .. +               ",
"              . .               ",
"         OOo  ...               ",
"       OO+o+X....               ",
"        oXX.+  X.               ",
"       o O+    X.               ",
"         O     XX.              ",
"               .X.              ",
"               XX..             ",
"                X..             ",
"                .X.             "
};
