/* XPM */
static char *spruce1609233564[] = {
/* columns rows colors chars-per-pixel */
"32 32 6 1 ",
"  c None",
". c #283F16",
"X c #3F5C29",
"o c #518629",
"O c #5E883E",
"+ c #628227",
/* pixels */
"               .                ",
"               .                ",
"              ..X               ",
"               ..               ",
"            ....+X..            ",
"              .+X.              ",
"          . X  ...O             ",
"           ..XOO.+.X..          ",
"          XX .+..+X..           ",
"        .   ..+X.X..            ",
"        ..OOXOOO.....           ",
"         ...+XOXX.++O. .        ",
"            ...+.+X+....        ",
"       .O .XXo..XXX..XX         ",
"      ...XXOX+XXXO+......       ",
"         ..XOoOO.+..+OX O       ",
"       O..+...OO..+XOO X .      ",
"    .. .XXXOXX...+XXO+XX..      ",
"     .. OXX..XX..XX.O.X..       ",
"    X ..XOOX+.XXXX+OO...        ",
"    XX.XX.++XXXX.OO+..+..       ",
"   . O......+OOO...O.XXO XX.    ",
"  ...OOO+....XXOOOOOXXO.+X..    ",
"   X .+OO++O+..XXX..OO.+..      ",
"   .....OO...O......O......     ",
"..XXXX...++O.OO..OOO...XX+.  X  ",
" .   X++....XOOOOO.X.++XOXX XX..",
"  .. XX..O...XXXXXX++.OOO+XXX.. ",
" X....X+XX+.+O...++O..X+..+..   ",
" . X+.....O..OO...OO.XX..+..XX  ",
"  ....++.......OOOO..+++...XX   ",
"  .XXXX..+OXXXX.XXX+.....+ ...  "
};
