/* XPM */
static char *result[] = {
/* columns rows colors chars-per-pixel */
"32 32 11 1 ",
"  c #5E4522",
". c #36160A",
"X c #BA9961",
"o c #3D2C11",
"O c #70592B",
"+ c #EBCB7A",
"@ c #E5BD77",
"# c #4D381C",
"$ c #825734",
"% c #78652B",
"& c white",
/* pixels */
"                                ",
" ............... .............. ",
" XXXXXXo XXXXXXo XXXXXXo XXXXXX ",
"OX+@+@+o X+@+@+o X+@+@+o X+@+@+O",
" X@+@+@o X@+@+@o X@+@+@o X@+@+@ ",
"OX+@+@+o X+@+@+o X+@+@+o X+@+@+O",
"OO OOOOo OOOOOOo OOOOOOo OOOO OO",
"O......o ......o ......o ......O",
"OXXXXXXo XXXXXX# XXXXXX# XXXXXXO",
"OX@+@+@# X@+@+@o X@+@+@o X@+@+@O",
"OX+@+@+o X+@+@+# X+@+@+# X+@+@+O",
"OX@+@+@# X@+@+@# X@+@+@# X@+@+@O",
"OX+@+@+# X+@+@+# X+@+@+# X+@+@+O",
"OO OOOO# OOOOOO# OOOOOO# OOOO OO",
"O......# ......# ......# ......O",
"OXXXXXX# XXXXXX# XXXXXX# XXXXXXO",
"OX@+@+@# X@+@+@# X@+@+@# X@+@+@O",
"OX+@+@+# X+@+@+# X+@+@+# X+@+@+O",
" X@+@+@# X@+@+@# X@+@+@# X@+@+@O",
"OX+@+@+# X+@+@+# X+@+@+# X+@+@+O",
" $$$$$$# $$$$$$# $$$$$$# $$$$$$O",
"       #       #       #       O",
" ####### ####### ####### ######O",
" oooooo# oooooo# oooooo# ooooooO",
" o###### o###### o###### o#####O",
" o#   ## o#   ## o#   ## o#   #O",
" #  O  # #  O  # #  O  # #  O   ",
" o O O # o O O # o O O # o O O O",
" #  O  # #  O  # #  O  # #  O   ",
" # OOO # # OOO # # OOO # # OOO  ",
"OO%%%%%OOO%%%%%OOO%%%%%OOO%%%%%O",
"                                "
};
