/* XPM */
static char *willow1609233564[] = {
/* columns rows colors chars-per-pixel */
"32 32 8 1 ",
"  c None",
". c #38341D",
"X c #54781C",
"o c #484327",
"O c #554E22",
"+ c #4A5F2A",
"@ c #70A61A",
"# c #90C60B",
/* pixels */
"                                ",
"                                ",
"                                ",
"                                ",
"             @#@@@##            ",
"            @##++++#@@@@@###    ",
"    @@X@#@@@@XX+XX+#@@+++++#    ",
"   @#XX##+@@++XX@@XX@##@+@++@@  ",
"  @@#X#X++XXX++XX@@X@@XX@++#### ",
" @@##XXX+XX@+X+@X+@XX@@XX@+++@# ",
" @##X@X@+X#++X+X#+XX++@@X#@+++@ ",
"@#X#@@X#+X++@X++@+#XX++@XX@X++@ ",
"@X#+@#X++X+@XX@X@+#+#X++#XX@X+@@",
"@X++@@#+@X++XO@XX+#++XX@@+X@X+#@",
"@X+X@@++@X#+X#@#X@@X+#X#@++@@X#@",
"@X+X#@+@@X##X#@OXX@X+@XX#X++@X#@",
" X+X#X+@+X@#X+@OOX@X+O+X#XX#@X#@",
" X@X#X+@+X+#X+@oOX@XOo+XX@X++XX@",
" X+X@X#@X#+ X+@#o#@Xo#+@X#X@+@X@",
" X+X@X#@X#+ X+@.o#@X #+@X X@+@#@",
" @+ @XX@#X+ X+ .oo@   +@X XX+@#@",
" @+ +#X@#X@ X  .o @   + @ @X + @",
" @  +#X@# @   oOo @   + @ @X + @",
" @  + X@# @  o.O          @X @ @",
"    + X@  @  ..O          @  @  ",
"    +  @     .oo          @  @  ",
"       @   .oOo.          @     ",
"       @    .OO.o               ",
"       @      O.O               ",
"       @      .O.O              ",
"       @      ....O             ",
"               .ooOO            "
};
