/* XPM */
static char *result[] = {
/* columns rows colors chars-per-pixel */
"32 32 189 2 ",
"   c #020202",
".  c #060806",
"X  c #0C0E0C",
"o  c #071806",
"O  c #151814",
"+  c #1C1E1C",
"@  c #022000",
"#  c #0E2F0C",
"$  c #093A06",
"%  c #0E300C",
"&  c #0D3C08",
"*  c #10320E",
"=  c #11390E",
"-  c #152A14",
";  c #172A15",
":  c #1E211E",
">  c #1B2C1A",
",  c #133411",
"<  c #163912",
"1  c #193D15",
"2  c #1E321C",
"3  c #1B3C19",
"4  c #222D1F",
"5  c #21351E",
"6  c #223D1D",
"7  c #222322",
"8  c #262826",
"9  c #2A2D2A",
"0  c #243622",
"q  c #2A3226",
"w  c #253B23",
"e  c #293E24",
"r  c #2D342C",
"t  c #2D3C2C",
"y  c #333D2E",
"u  c #333433",
"i  c #353B34",
"p  c #383D35",
"a  c #3B3D3B",
"s  c #044100",
"d  c #044D00",
"f  c #0D4409",
"g  c #0E4A0A",
"h  c #13440E",
"j  c #124D0E",
"k  c #045800",
"l  c #0D5108",
"z  c #12530E",
"x  c #115A0E",
"c  c #1A4316",
"v  c #184614",
"b  c #1C4319",
"n  c #1E4A1B",
"m  c #155910",
"M  c #1F521A",
"N  c #21431D",
"B  c #224B1D",
"V  c #24541D",
"C  c #24591E",
"Z  c #254122",
"A  c #2A4426",
"S  c #254F21",
"D  c #284825",
"F  c #2C442A",
"G  c #2D4B2B",
"H  c #34422F",
"J  c #324C2D",
"K  c #265522",
"L  c #2C5126",
"P  c #265921",
"I  c #2C5E25",
"U  c #2D5F29",
"Y  c #34522F",
"T  c #315D29",
"R  c #344532",
"E  c #394435",
"W  c #364C33",
"Q  c #3C4A37",
"!  c #3D433B",
"~  c #3F4D3A",
"^  c #375034",
"/  c #395334",
"(  c #345B32",
")  c #3D5C35",
"_  c #3E5739",
"`  c #2C6326",
"'  c #316629",
"]  c #336E2D",
"[  c #37722F",
"{  c #3F6436",
"}  c #3B7535",
"|  c #404C37",
" . c #40453E",
".. c #424C3B",
"X. c #45523E",
"o. c #48553F",
"O. c #415D3B",
"+. c #416537",
"@. c #43633B",
"#. c #45693E",
"$. c #434342",
"%. c #454C41",
"&. c #494D46",
"*. c #4B4C4A",
"=. c #465442",
"-. c #4A5344",
";. c #4C5A44",
":. c #4E544B",
">. c #4E584A",
",. c #51554E",
"<. c #525D4C",
"1. c #545553",
"2. c #555B52",
"3. c #595E55",
"4. c #5B5B5B",
"5. c #466442",
"6. c #496742",
"7. c #506045",
"8. c #54624B",
"9. c #58644E",
"0. c #516E4C",
"q. c #4B7244",
"w. c #4F7946",
"e. c #4F744C",
"r. c #51774A",
"t. c #537B4C",
"y. c #576251",
"u. c #5A6453",
"i. c #5C6C53",
"p. c #5E645A",
"a. c #5F6C59",
"s. c #5E7156",
"d. c #62675C",
"f. c #636C5C",
"g. c #617356",
"h. c #64745C",
"j. c #667A5D",
"k. c #697C5D",
"l. c #636661",
"z. c #676B64",
"x. c #686D66",
"c. c #6B6D6A",
"v. c #677561",
"b. c #6A7563",
"n. c #6B7C62",
"m. c #6E756A",
"M. c #6E7B69",
"N. c #717B6C",
"B. c #737373",
"V. c #747C71",
"C. c #7A7A7A",
"Z. c #6E8265",
"A. c #6D8E67",
"S. c #6F8069",
"D. c #718567",
"F. c #73836C",
"G. c #738A6B",
"H. c #77906F",
"J. c #768173",
"K. c #778871",
"L. c #7B8B74",
"P. c #7D8779",
"I. c #7E8C79",
"U. c #7A9372",
"Y. c #828D7E",
"T. c #83947D",
"R. c #868686",
"E. c #858D83",
"W. c #898F87",
"Q. c #8C8C8C",
"!. c #879382",
"~. c #8B9585",
"^. c #8A9B83",
"/. c #8D928B",
"(. c #8E9A89",
"). c #929D8D",
"_. c #929292",
"`. c #959B93",
"'. c gray60",
"]. c #90A289",
"[. c #96A291",
"{. c #99A594",
"}. c #9DA39B",
"|. c #A1A79F",
" X c #A4A4A4",
".X c #A4AAA2",
"XX c #A8AEA6",
"oX c #ABABAB",
"OX c #B3B3B3",
/* pixels */
"| R O .   O ~ y.-.%.: X .   q i.x.y.q B s.h.Z.8.p   @ o 4 Q 8.s.",
"T.!.<.r y 8.`.T.]./.N.h.T =.P.|.oX).i.J.L.`.}.T.Z.6 H 6.Z.`.{.^.",
" XoX(.!.L.]. XoX|.OX|.|.F.T.|. XoX`.}.}.^.(.T.}.I.s.H.L.L.{.oX X",
"U.OX^.{.(.I.(.'.T. X.XoX[.[.A.).). X.X.X X^.G.T.`.`.'.T.}.{.oX[.",
"~.(.).'.L.n.Y.j.Z.T.!.[. X`.U.G.P.!.}.OX X^.(.'.L.~.^.^.[.oXXX~.",
"G.'.).(.i.F.T.u.0.h.N.{.T.).(.T.P.|.oXOX XT.!.}.I.F.D.D.n. XoX'.",
"j.J.D.G.D.k.m.a.3.| b.W.~.~.!.`.R.E.(.(.W.Y.R.O.8.L o.9.V.~.{.L.",
"I.(.J.!.v.C W c J 9.O.P.T.z.h.U.p.p.s.V.5.v.l.W c :.! +.M.~.V.D.",
"b.n.H.m.;.Y H = & D 8.m.b.j.i.!.b.g.^ E *.h ! A n p.a.v.j.Z.9.%.",
"n.U.D.Z.;.6 c & d t g.j.L.D.h.p.N.i.O.F B A 0 q ` p.I.I.b.i.k.b.",
"G.n.j.u.! 1 = & J ,.J.t.) ;.` :.f.O.;.G w 1 5 B a.h.E.L.N.h.M.k.",
"s.G.F.l. ., 2  .;.F.D.t.q.a.G 2.p.i./ u 0 9 > p a.v.G.S.H.8.[ r.",
"8.Z.G.f.a 5 u $.;.J.e.D.u.*.g ~ U ) 9 ! R 7 > ! n.h.P.k.7.P I ( ",
"i.b.i.R R 0 6 -.i.h.D.d.n._ ~ $.B _ $.*.0 7 $ y } h.D.N.o.z A z ",
"8.9.;.| | , j 9.9.f.8.,.;.:.:.! Q F  .u a u Z p =.-.h.:.j f $ d ",
"X.i.2.X.B 1 3 ;.o.X.<.Y :.u...e a u u t | =.,.F x %.5 f 2 $ , = ",
"M.b.c...R A l { q.>.W S p.! < 2 8 8 e J a.>.b.p.X.5 5 , 2 3 w 6.",
"D.b.1.=.b q F =.V ` Y Q $.w $ , 7 u H ..V.N.x.u.a , 1 b a %.x.&.",
"d.b.;.2 w $ G F ) L e 1.! e < # > p ~ i.B.m.#.<.R 1 w %.$.,.*.3.",
"p.m.w $ f , n ~ a V A u 3 9 : , 5 Q ) <.F.w.) Y ! 9 B J <.%.J.m.",
"p =.5 * = f J z J c q 0 w 0 7 > u p o.y.p.7.K D f < b  .9.a.M.2.",
"R = = * - w w q % 2 9 a r 4 > 2 E X.j.g.K.#.Y g d 0 p ) ) =.W %.",
"$ & , * > Z *.v i , 8 8 7 : , D 8.v.] 9.+.` B j b W &.O.C ^ n J ",
"$ > # > 0 z ..i u 9 ; > 7 > r @.I t./ u.+.' f y 3 Y &._ K n E B ",
"$ * $ - w G G ..- 7 - * 7 0 v v.5.8.) / l G m n q N =.J B j b i ",
"- - s > v G M f 2 - > 2 2 & P s.9.m y.f n P %.r f A P -.E f & 7 ",
"- # $ 8 b D K n i 2 > > 0 G M q.;.;.j g A W ^ q # % Z ` < $ - - ",
"4 ; - 2 Z J B g & * - * r ^ S C ) t & f G 3 < & - 7 n c i R & - ",
"> 7 > &.&.J @.& , $ ; + F Y V k =.f , , & > 2 - - 7 b b y 3 , + ",
": 8 t ,.2.8.~ 2 $ - , 7 0 ^ K %.v , # - s : - % $ & : q 3 > > * ",
"9 $.=.$.b.W 2.Y R F 2 8 r u ^ ( p # , * W > F 0 i 0 E G a a u > ",
"*.C.R.C.4.*.c.R.R.Q.B.1.C.Q.4._. XQ.4.a l.B.Q.1.B.B.C.R. Xc.a 4."
};
