/* XPM */
static char *result[] = {
/* columns rows colors chars-per-pixel */
"32 32 201 2 ",
"   c #020202",
".  c #0A0803",
"X  c #0C0D0C",
"o  c #100E09",
"O  c #0C100C",
"+  c #141006",
"@  c #11130D",
"#  c #1A1409",
"$  c #1A180E",
"%  c #101110",
"&  c #181611",
"*  c #141810",
"=  c #1A1D15",
"-  c #1A1A1A",
";  c #21190C",
":  c #2A1E0E",
">  c #221D15",
",  c #1C241A",
"<  c #2A210D",
"1  c #23251E",
"2  c #2A2719",
"3  c #332411",
"4  c #342913",
"5  c #3B2A17",
"6  c #3B2D14",
"7  c #3F361F",
"8  c #242424",
"9  c #262D22",
"0  c #2B2E28",
"q  c #322D22",
"w  c #2A3228",
"e  c #2E392A",
"r  c #383626",
"t  c #323C2C",
"y  c #333631",
"u  c #383C34",
"i  c #3B3E3A",
"p  c #402F15",
"a  c #433217",
"s  c #453319",
"d  c #4C351A",
"f  c #4D391B",
"g  c #52331E",
"h  c #543C1C",
"j  c #5A3F1E",
"k  c #443422",
"l  c #483927",
"z  c #4C3E24",
"x  c #573621",
"c  c #563B25",
"v  c #543C29",
"b  c #593E2A",
"n  c #413D31",
"m  c #4C3F31",
"M  c #563F32",
"N  c #643E26",
"B  c #35412F",
"V  c #374331",
"C  c #3B4336",
"Z  c #3D4B35",
"A  c #3E443B",
"S  c #3E4D3A",
"D  c #5C411F",
"F  c #44452E",
"G  c #4E422B",
"H  c #5E4120",
"J  c #56422A",
"K  c #54472A",
"L  c #5D422C",
"P  c #434634",
"I  c #4D4232",
"U  c #484937",
"Y  c #40423E",
"T  c #574B30",
"R  c #584B38",
"E  c #45533D",
"W  c #57553B",
"Q  c #5D573D",
"!  c #644422",
"~  c #694724",
"^  c #6D4925",
"/  c #62432E",
"(  c #674D2D",
")  c #714A26",
"_  c #764D29",
"`  c #794F2A",
"'  c #6F512F",
"]  c #7D512B",
"[  c #684731",
"{  c #634C32",
"}  c #6B4B33",
"|  c #714D35",
" . c #625335",
".. c #6E5035",
"X. c #66543D",
"o. c #6C5B3C",
"O. c #725336",
"+. c #72553A",
"@. c #7B553A",
"#. c #775A3A",
"$. c #7D5A3D",
"%. c #7F603D",
"&. c #444443",
"*. c #464B43",
"=. c #4B4D49",
"-. c #5C4C42",
";. c #455241",
":. c #4A5543",
">. c #4E5845",
",. c #4E524B",
"<. c #4E5C48",
"1. c #5B5748",
"2. c #525D4A",
"3. c #535353",
"4. c #5D5C54",
"5. c #5B5B5B",
"6. c #634E41",
"7. c #635441",
"8. c #6A5543",
"9. c #685A48",
"0. c #745C47",
"q. c #685D54",
"w. c #54614D",
"e. c #5A6454",
"r. c #5D6954",
"t. c #5F6958",
"y. c #6B654A",
"u. c #786247",
"i. c #686A55",
"p. c #61695B",
"a. c #716657",
"s. c #7F6451",
"d. c #736954",
"f. c #74695C",
"g. c #796D5C",
"h. c #64735A",
"j. c #69795F",
"k. c #7C745E",
"l. c #7D785B",
"z. c #656565",
"x. c #666D61",
"c. c #7A6C62",
"v. c #6A7663",
"b. c #6A7464",
"n. c #6E746A",
"m. c #6F7B69",
"M. c #737D6D",
"N. c #767676",
"B. c #757B72",
"V. c #797D77",
"C. c #83542E",
"Z. c #865630",
"A. c #895730",
"S. c #8C5932",
"D. c #825B3C",
"F. c #935C35",
"G. c #986037",
"H. c #9C6239",
"J. c #A1653B",
"K. c #A9693F",
"L. c #845E41",
"P. c #895F41",
"I. c #876246",
"U. c #8C6345",
"Y. c #8C6649",
"T. c #88694D",
"R. c #916845",
"E. c #926749",
"W. c #95694B",
"Q. c #9C6D4D",
"!. c #8E704F",
"~. c #836B53",
"^. c #8B6F5B",
"/. c #9E6F51",
"(. c #8B725A",
"). c #AC6B40",
"_. c #B26E43",
"`. c #A6774E",
"'. c #B47144",
"]. c #B97346",
"[. c #A06F50",
"{. c #A37352",
"}. c #AA7654",
"|. c #A87B5B",
" X c #8F7460",
".X c #867869",
"XX c #957863",
"oX c #9E7A64",
"OX c #8C7D73",
"+X c #C37B4B",
"@X c #778072",
"#X c #7B8377",
"$X c #7E857A",
"%X c #80847E",
"&X c #81897D",
"*X c #A8826A",
"=X c #B3886F",
"-X c #848483",
";X c #848882",
":X c #949494",
">X c #A79387",
/* pixels */
"*.@Xj.B.$Xh.v.#X#Xm.v.% m.h.@X#X&X@X;X&X$Xm.@X#XB.b.% ;Xv.M.@Xe ",
"*.:Xb.g.>Xm.M.M.OX%X,.% S.1.<.a.W.$.Y.U.0.J.I.s.7.C X :Xi.#.e., ",
"N OXc.S._.!.p.`.].w.Z % 5 $ + # $ ; # + ; = # # + + % N.` _ K * ",
"x [.*XH.C.S.u.J.0.o.V % n.p.M.@X$XB.w.n.>., y *.=.C 8 J.A.C.#.X ",
"6.oXOX^.{ ^.Y.~ ) o.t @ Z a.B.n.t.>.p.h.:.@ 3.V.V.E % |.H.A.) + ",
"x ).z.U.D.f.+.h ] ' k % a./. .C.J.{.g.d.S @ *.k.o.e % /.A.G.~ + ",
"g N.f.Z.^ ! S.] C.] 4 % Q..XE.E.^.N.F.O.V X 5.U._ r % F.A.^ s + ",
"3 g 6 p 4 < 7 k d a < % ).c.^.Z.O._ ` ^ P * / [.+.6 o : ; + +   ",
"&.9 0 9 1 u e , - =.y - oX XU.O.b ~ | ` ( $ D.{.C.4 % u w 9 A 3.",
"}.y.v.9.j.c.p.V y ;Xx., F.O.@.{ { c 1.| =.o c A.! < % w.P M x._.",
"C.d.y.G.).R.2.e =..X;.X ( 7 s s 6 6 2 2 > . n h 2 ; % L 4 g C.` ",
"E.`.`.J.C.f T w &.}.H X % @ @ o % o % % % % - % 9 i i 9 @ v K.).",
"F._.J.Z.~ { X.e x F.H X 5.V.p.h.n.V.2.2.;.M.x.w *.n.r.:.* L H.S.",
"].+XF._ ~ @.~ t 3 c 3 X 3.n.W 2.o.d.E :.(.d.>.* ,.~.:.S @ b Q.F.",
"C.}._ C.! d ~ h . % % % 3.c.R Z p.%.1.K ] ..F @ Y u.I.E X L K.H.",
"_.C.` ` L ^ ` d n ;Xb.9 *.u.L 4.u.f ! _ @.$.G X I J.L.T @ @.K.S.",
"H.! C.^ j c ~ s c =Xr.% t D.j q.~ m D d K 0.f o ..).C.f X } Z.H.",
"F.j j j D O.~ s g {.B X &.S.J C.{ h ^ D ~ @.x + L Z.) G X / F.[.",
"] ! ~ ~ _ C.Z.a x C.2 X n Q v I I 4 6 6 6 6 < . k O.8.J X L J.C.",
"` ! ^ j ! ! f < N C.! + - % % X @ % % @ % % @ O b 8.s.{ X -.C.) ",
"# + # + @ # + + 5.'./ + *.w.B.M.>.h.h.b.b.h.w.1 L H.I.^ * > : # ",
"0 =.,.B.j.b.t.e / S.f + u k.c.h.2.e.~.A. .>.S * [ ].G.H * 3.p., ",
"6.oXU E e.>.:.O k K ; . z.f.OX!.v.g.I.F.C.) T X / F._ a + n E O ",
"9.G.! K Q E C X - % % O r E._.]. .' $.] _ J P @ 2 < # +   l s o ",
"v H.S.XXY.E V X *.p.E 9 | J.P.[._ $.^ ) f ^  .% y Y *.A &.3.S = ",
"b H.F.H.] T >.@ =.;X>.* 3.Y.T.0.A.^ ..H h f q X ,.-Xl.I..X@XS = ",
"L J.H.).! D t * =.E.>.% U ~.F.D.] ] C.h h 1.z % Y p.D.F.A.Q 7 X ",
"[ S.'.+X] f *.$ v U.r X b J.S.E.Z.S.C.^ I ! ~ & P _.A.F.Z.#.T * ",
"b F.J.F.] O.=.- N /.&.X } '.(.D.S._ ^ D h H Y o / C.` S.~ 0.} * ",
"[ J.A.` c.q.q.& -._.! X /  XQ.] ! D ) ^ ~ 7.K @ } ] ) _ ~ O.T + ",
"b H.C.F.` 0.1.& b C.d + L F.$._ ^ ! H ^ ~ ^ v o 9.H.^ D.F.) { o ",
"v ! ! l d d q 8 l X.q 8 U D h a s s 6 a 5 y 5 8 L ..a h v 6 : & "
};
