/* XPM */
static char *result[] = {
/* columns rows colors chars-per-pixel */
"32 32 94 2 ",
"   c black",
".  c #0A0803",
"X  c #0C0C0C",
"o  c #110E09",
"O  c #141006",
"+  c #16140F",
"@  c #181309",
"#  c #1E180A",
"$  c #121410",
"%  c #1C1B16",
"&  c #1B1B1B",
"*  c #241E0F",
"=  c #221D12",
"-  c #211F1A",
";  c #29210D",
":  c #252015",
">  c #292112",
",  c #2E2915",
"<  c #23221B",
"1  c #28251B",
"2  c #2D2A1B",
"3  c #312611",
"4  c #332914",
"5  c #3C2E14",
"6  c #332D1C",
"7  c #36331F",
"8  c #3A311B",
"9  c #222222",
"0  c #2A2722",
"q  c #262A22",
"w  c #2E2E22",
"e  c #2A2A2A",
"r  c #312E23",
"t  c #392F21",
"y  c #293125",
"u  c #2E3229",
"i  c #333324",
"p  c #3A3321",
"a  c #30342B",
"s  c #33392D",
"d  c #3B3928",
"f  c gray20",
"g  c #343830",
"h  c #3A3B31",
"j  c #3C3C3C",
"k  c #463418",
"l  c #583D1E",
"z  c #423620",
"x  c #413925",
"c  c #483C27",
"v  c #403C29",
"b  c #403E33",
"n  c #5E4220",
"m  c #404032",
"M  c #4B4335",
"N  c #4D4539",
"B  c #5B4B38",
"V  c #694724",
"C  c #62523F",
"Z  c #444444",
"A  c #4C4C4C",
"S  c #545454",
"D  c #5C5C5C",
"F  c #725E4C",
"G  c #645E54",
"H  c #6B655B",
"J  c #7F6B59",
"K  c #636363",
"L  c #6C6C6C",
"P  c #726C62",
"I  c #737373",
"U  c #7B7B7B",
"Y  c #8E7055",
"T  c #867260",
"R  c #8D7967",
"E  c #94806E",
"W  c #978371",
"Q  c #9A8674",
"!  c #9E8A78",
"~  c #A28E7C",
"^  c #A5917F",
"/  c #838383",
"(  c #8B8B8B",
")  c #939393",
"_  c #999999",
"`  c #A89482",
"'  c #A5A5A5",
"]  c #ACACAC",
"[  c #B4B4B4",
"{  c #BCBCBC",
"}  c #C1C1C1",
"|  c #CBCBCB",
" . c #D1D1D1",
".. c #DBDBDB",
/* pixels */
"O = , 4 ; 1 3 5 2 2 6 5 2 2 ;   ; > 2 5 6 8 2 ; O O > 2 w , < . ",
"O h d V V l n n n l V l n n n l n n n n n n n n n n n n k u i ; ",
"O N t n M G G G G G G G H G G G G H H G G G G G G G G B 5 i m * ",
"$ N 6 n G [ [ [ [ [ [ { ) K S D I ] [ [ [ [ [ [ [ [ { W 5 y d * ",
"@ 4 , n G [ [ [ [ [ ] Z & & 9 e & e / { { [ [ [ { { { W 5 4 7 # ",
"O e = n G [ [ [ { { j 9 9 e f e 9 9 q L { { { } } } } Q 5 X < ; ",
"O - % n G [ { [ } K Z j f e e e 9 9 9 e I } } { } } { Q 5 * = O ",
"    . n G { } { _ j K L L L D Z 9 9 9 9 j { { } } { } Q 5       ",
"; ; O V G { } } L K L I I I U I I A e f e ) } { } | } ~ 5 O 4 # ",
"v c , l G } } } A L I U I I I I U U K Z f D } | }  .| ! 5 : d < ",
"6 6 3 n G } } { j K U / ( / / ( ( / I A S S } | | |  .~ 5 3 7 , ",
"% 3 % n G { |  .S L ( U L K D A S D D S K S  .|  . . .^ 5 % u = ",
"- 4 > n G | |  ./ K j j f D D Z S j j L D A (  . . .| ~ 5 4 8 3 ",
"1 2 # n H |  .| / U Z A K / U I U K I ( S S U  . . . .~ 5 o t r ",
"& % O n P |  .} S I I I U / I K ( / ) I A D )  . .|  .~ 5 + % - ",
"O O . n P  . . .) S U / / I L Z ( ( I L Z D ]  . . . .~ 5 O O O ",
"@ @ o n P  . . .{ K K ( / S A f K I K K Z /  . . . . .! 8   X @ ",
"M s 7 n P  . . . .I U / U e e e D / L D D |  . . .| | ` 5 o u g ",
"h 7 i n P  . . .| | / ( U e j j D / K D I  . . . . . .! 5 o w a ",
"5 5 5 n P  . . . . ._ _ U U K U ( L D D (  .|  . . .| ` 5 O 6 a ",
"e t 2 l P  ... .....[ ( _ / I L I I A S ( |  . . . . .` 5 O > < ",
"r 0 2 n P  . .|  ...| I L ) ) ( K b Z ' ( D  . . .|  .` 5 O < 2 ",
"z k t n P  ...........) D D S Z f S | ..L D ( ...... .` 5 O 4 s ",
"p 6 t n L  . .........] I Z j Z _  ...{ S K I )  .....` 5 X 2 u ",
"p s p n P  . .......} ' | L A | ......I D K L / { } | ` 5 X 6 b ",
"& q & n P  .......| U / ..I f { ....} K K I / E { ....` 5 X - 9 ",
"O O   n P | ] _ / I U / ..j j ' ....( ( U ( ) )  ... .~ 5   o O ",
"O O . n H { } [ ) ) ) ) [ A D |  .{ ' ) ' ' ] [ ......` 5     O ",
"h i w l P  .| _ _ _ _ _ ( E / ( ..} ..{ | ..| { ......` 5   > x ",
"2 y 6 V C ~ E Y T T Y R P J T F ` ( ` ^ ` ` ` Q ` ` ` Y 5   9 e ",
"6 e q l 5 5 6 5 5 5 5 5 8 5 5 5 5 5 5 5 5 5 5 5 5 5 5 5 4 @ 9 5 ",
"= < X .   . # ; O   . O ; # O .   # # ; O # # ; o # * O   . # = "
};
