/* XPM */
static char *result[] = {
/* columns rows colors chars-per-pixel */
"32 32 168 2 ",
"   c black",
".  c #010000",
"X  c #000001",
"o  c #030100",
"O  c #030201",
"+  c #000102",
"@  c #010202",
"#  c #010203",
"$  c #020202",
"%  c #020203",
"&  c #020303",
"*  c gray1",
"=  c #050300",
"-  c #060400",
";  c #060402",
":  c #060403",
">  c #020304",
",  c #030304",
"<  c #030405",
"1  c #040404",
"2  c gray2",
"3  c #0A0600",
"4  c #0E0900",
"5  c #0F0A00",
"6  c #0B0805",
"7  c #090A0B",
"8  c #0A0A0C",
"9  c #0A0B0C",
"0  c #0B0B0C",
"q  c #0C0C0C",
"w  c #100B00",
"e  c #110B00",
"r  c #100C08",
"t  c #110D09",
"y  c #181000",
"u  c #191100",
"i  c #1A1100",
"p  c #1B1200",
"a  c #1C1300",
"s  c #1D1300",
"d  c #16100A",
"f  c #17110A",
"g  c #1C150E",
"h  c #1E160E",
"j  c #1E160F",
"k  c #0F0F10",
"l  c #0F1010",
"z  c #0F1011",
"x  c #101111",
"c  c #111111",
"v  c #111112",
"b  c gray7",
"n  c #131313",
"m  c gray8",
"M  c #161616",
"N  c #181818",
"B  c #1E1E1E",
"V  c #251900",
"C  c #261900",
"Z  c #281B00",
"A  c #2B1C00",
"S  c #2D1E00",
"D  c #2F1F00",
"F  c #241A10",
"G  c #261C11",
"H  c #281E12",
"J  c #291E13",
"K  c #2A1F13",
"L  c #302000",
"P  c #3C2800",
"I  c #2B2014",
"U  c #2D2215",
"Y  c #2E2216",
"T  c #3A2B1B",
"R  c #3B2C1B",
"E  c #3F2F1D",
"W  c #202020",
"Q  c gray14",
"!  c #252525",
"~  c #2A2A2A",
"^  c gray17",
"/  c #313131",
"(  c #393939",
")  c #402A00",
"_  c #412B00",
"`  c #4A3100",
"'  c #4C3300",
"]  c #4D3300",
"[  c #533700",
"{  c #583A00",
"}  c #5E3F00",
"|  c #41311F",
" . c #43321F",
".. c #443320",
"X. c #453320",
"o. c #463421",
"O. c #513D26",
"+. c #523D26",
"@. c #634200",
"#. c #6E4900",
"$. c #704A00",
"%. c #734C00",
"&. c #734D00",
"*. c #744D00",
"=. c #754E00",
"-. c #795100",
";. c #7A5100",
":. c #7B5200",
">. c #7C5300",
",. c #7D5300",
"<. c #7E5400",
"1. c #5F472D",
"2. c #61482D",
"3. c #634A2F",
"4. c #7A5B39",
"5. c #7B5C3A",
"6. c #7F5F3C",
"7. c gray25",
"8. c gray34",
"9. c gray36",
"0. c #5D5D5D",
"q. c gray37",
"w. c #676767",
"e. c #6C6C6C",
"r. c #6D6D6D",
"t. c gray45",
"y. c gray47",
"u. c #797979",
"i. c gray48",
"p. c #805500",
"a. c #815500",
"s. c #815600",
"d. c #825600",
"f. c #825700",
"g. c #80603C",
"h. c #936E45",
"j. c #987147",
"k. c #9F764B",
"l. c #9F774B",
"z. c #A3794C",
"x. c #A57B4E",
"c. c #AA7F50",
"v. c #AE8252",
"b. c #B18453",
"n. c #B28554",
"m. c #B38554",
"M. c #B38654",
"N. c #B48655",
"B. c #B78956",
"V. c #B88957",
"C. c #B88A57",
"Z. c #B98A57",
"A. c #BA8B57",
"S. c #BA8B58",
"D. c #BB8B58",
"F. c #BB8C58",
"G. c #BC8C58",
"H. c #BC8C59",
"J. c #8E8E8E",
"K. c gray56",
"L. c #909090",
"P. c #9F9F9F",
"I. c #A2A2A2",
"U. c #A7A7A7",
"Y. c #B9B9B9",
"T. c gray73",
"R. c #BBBBBB",
"E. c None",
/* pixels */
"E.E.E.E.E.E.E.                                    E.E.E.E.E.E.E.",
"E.E.E.E.E.E.n N N N W ! ! ! ! ! ! ! ! ! ! ! ! ! ! B E.E.E.E.E.E.",
"E.E.E.E.E.  / u.u.y.P.T.Y.Y.Y.Y.Y.Y.Y.Y.Y.Y.Y.Y.R.8.  E.E.E.E.E.",
"E.E.E.E.E.  Q 0.0.9.i.K.J.J.J.J.J.J.J.J.J.J.J.J.L.7.  E.E.E.E.E.",
"E.E.E.E.E.  X # & * , < < < 2 2 > > > > > , 2 1 > X   E.E.E.E.E.",
"E.E.E.E.u D D L y   a L D S 3 : R X.....o.U   h X.X.X.J E.E.E.E.",
"E.E.E.  V ,.p.d._   ' d.p.-.i t k.D.Z.Z.G.4.  O.D.Z.V.|   E.E.E.",
"E.E.E.  V ,.p.d._   ' f.p.-.p t l.D.Z.Z.H.4.  O.D.Z.V.|   E.E.E.",
"E.E.E.  V ,.p.d._   ' d.p.-.p t k.D.Z.Z.H.4.  O.D.Z.V.|   E.E.E.",
"E.E.E.  V ,.p.d._   ' d.p.-.p t k.D.Z.Z.H.4.  O.D.Z.V.|   E.E.E.",
"E.E.E.  C ,.p.p._   ] d.p.-.p t k.D.Z.Z.G.5.. +.C.V.V. .  E.E.E.",
"E.  y [ @.s.} Z ) { $.s.a.;.p t l.F.Z.Z.D.x.6.2.T g.F.h.4.I   E.",
"E.  u =.>.,.`   P <.:.;.:.*.u r j.m.b.b.b.n.B.3.  1.N.M.v.Y   E.",
"E.  - p s s e   4 s s s s p = O F K K K K K K f   d K K H 6   E.",
"E.  $ 7 8 8 9 q 0 8 8 8 8 8 0 q k z z z z z l x b x l z k 1   E.",
"E.  M w.r.r.r.r.r.r.r.r.r.r.e.t.P.U.U.U.U.U.U.U.U.U.U.U.I.^   E.",
"E.  M w.r.r.r.r.r.r.r.r.r.r.e.t.P.U.U.U.U.U.U.U.U.U.U.U.I.^   E.",
"E.  $ 7 8 8 9 q 0 8 8 8 8 8 8 0 c v z l z z l x b x l z k 1   E.",
"E.  - p s s e   4 s s s s s s i o ; G K K K K f   d K K H 6   E.",
"E.  u =.>.,.`   P <.:.;.;.;.:.#.5 g z.n.b.n.B.3.  1.N.M.v.Y   E.",
"E.  y [ @.s.} Z ) { $.s.p.p.s.&.w j c.S.D.x.6.2.T g.F.h.4.I   E.",
"E.E.E.  C ,.p.p._   ] d.p.p.s.%.w j c.A.G.5.. +.C.V.V. .  E.E.E.",
"E.E.E.  V ,.p.d._   ' d.p.p.s.%.w j c.A.H.4.  O.D.Z.V.|   E.E.E.",
"E.E.E.  V ,.p.d._   ' d.p.p.s.%.w j c.A.H.4.  O.D.Z.V.|   E.E.E.",
"E.E.E.  V ,.p.d._   ' f.p.p.s.%.w j c.A.H.4.  O.D.Z.V.|   E.E.E.",
"E.E.E.  V ,.p.d._   ' d.p.p.a.%.w h c.A.G.4.  O.D.Z.V.|   E.E.E.",
"E.E.E.E.u D D L y   a L D D L A - 6 E X.o.U   h X.X.X.J E.E.E.E.",
"E.E.E.E.E.  X # & * % # # # # # * * + + + @ * % +     E.E.E.E.E.",
"E.E.E.E.E.  Q 0.0.0.0.0.0.0.0.0.0.0.0.0.0.0.0.0.q.~   E.E.E.E.E.",
"E.E.E.E.E.  / u.u.u.u.u.u.u.u.u.u.u.u.u.u.u.u.u.i.(   E.E.E.E.E.",
"E.E.E.E.E.E.n N N N N N N N N N N N N N N N N N N m E.E.E.E.E.E.",
"E.E.E.E.E.E.E.                                    E.E.E.E.E.E.E."
};
