/* XPM */
static char *result[] = {
/* columns rows colors chars-per-pixel */
"32 32 172 2 ",
"   c #281818",
".  c #301010",
"X  c #331313",
"o  c #361010",
"O  c #361313",
"+  c #361616",
"@  c #391313",
"#  c #391616",
"$  c #3C1616",
"%  c #3F1616",
"&  c #381818",
"*  c #391919",
"=  c #3B1B1B",
"-  c #3C1C1C",
";  c #202020",
":  c #2C2C2C",
">  c #2D2D2D",
",  c gray18",
"<  c #2F2F2F",
"1  c gray19",
"2  c #313131",
"3  c #323232",
"4  c gray20",
"5  c #343434",
"6  c #353535",
"7  c gray21",
"8  c #373737",
"9  c gray22",
"0  c #393939",
"q  c #3A3A3A",
"w  c gray23",
"e  c #3C3C3C",
"r  c gray24",
"t  c #3F3F3F",
"y  c #4C0000",
"u  c #4F0000",
"i  c #520000",
"p  c #550000",
"a  c #580000",
"s  c #5B0000",
"d  c #5C0000",
"f  c #5E0000",
"g  c #421616",
"h  c #561D1D",
"j  c #5F1D1D",
"k  c #610000",
"l  c #620000",
"z  c #640000",
"x  c #650000",
"c  c #670000",
"v  c #680000",
"b  c #6A0000",
"n  c #6B0000",
"m  c #6D0000",
"M  c #6E0000",
"N  c #700000",
"B  c #710000",
"V  c #720000",
"C  c #730000",
"Z  c #740000",
"A  c #760000",
"S  c #770000",
"D  c #780000",
"F  c #790000",
"G  c #7A0000",
"H  c #7B0000",
"J  c #7C0000",
"K  c #7D0000",
"L  c #7E0000",
"P  c #7F0000",
"I  c #621D1D",
"U  c #651D1D",
"Y  c #592020",
"T  c #722424",
"R  c #7E2323",
"E  c #7F2424",
"W  c #7F2A2A",
"Q  c #623939",
"!  c gray25",
"~  c #414141",
"^  c gray26",
"/  c #434343",
"(  c #444444",
")  c gray27",
"_  c #464646",
"`  c gray28",
"'  c #484848",
"]  c #494949",
"[  c gray29",
"{  c #4B4B4B",
"}  c #4C4C4C",
"|  c gray30",
" . c #4E4E4E",
".. c gray31",
"X. c #515151",
"o. c gray33",
"O. c #800000",
"+. c #810000",
"@. c #820000",
"#. c #830000",
"$. c #840000",
"%. c #860000",
"&. c #870000",
"*. c #890000",
"=. c #8A0000",
"-. c #8C0000",
";. c #8D0000",
":. c #8F0000",
">. c #900000",
",. c #910000",
"<. c #930000",
"1. c #940000",
"2. c #960000",
"3. c #970000",
"4. c #990000",
"5. c #9A0000",
"6. c #9C0000",
"7. c #9D0000",
"8. c #9E0000",
"9. c #9F0000",
"0. c #A00000",
"q. c #A10000",
"w. c #A30000",
"e. c #A50000",
"r. c #A60000",
"t. c #A80000",
"y. c #A90000",
"u. c #AB0000",
"i. c #AC0000",
"p. c #AD0000",
"a. c #AF0000",
"s. c #B00000",
"d. c #B20000",
"f. c #B30000",
"g. c #B50000",
"h. c #B60000",
"j. c #B80000",
"k. c #B90000",
"l. c #BB0000",
"z. c #BC0000",
"x. c #BE0000",
"c. c #BF0000",
"v. c #822727",
"b. c #852424",
"n. c #852727",
"m. c #8A2020",
"M. c #8C2222",
"N. c #8D2323",
"B. c #8E2424",
"V. c #8E2727",
"C. c #852A2A",
"Z. c #932323",
"A. c #962020",
"S. c #912727",
"D. c #942424",
"F. c #992323",
"G. c #9D2727",
"H. c #912A2A",
"J. c #962C2C",
"K. c #952E2E",
"L. c #982E2E",
"P. c #9A3030",
"I. c #A02A2A",
"U. c #C10000",
"Y. c #C20000",
"T. c #C50000",
"R. c #C80000",
"E. c #CB0000",
"W. c #CE0000",
"Q. c #D40000",
"!. c #E00000",
"~. c #E30000",
/* pixels */
"t / ! ! / ! ! / e ! ! ! / _ _ / ! ! ! ! _ _ _ / ! e 9 ! _ ! ! e ",
"A.W.E.g.U.T.j  .!.l.l.l.j.c.c.j.j.T.I / Q.Q.W.W.x.l.R.g.i.k.k.U ",
"B.>.>.8.=.K %  .l.6.2.=.>.1.#.3.&.K g { a.=.;.O.>.*.7.;.%.&.=.g ",
"b.>.;.3.O.S + { c.2.*.1.#.&.J ;.O.O.$ ! 0.=.2.#.A 5.>.;.*.&.>.# ",
"T S k s i f + / $.c k z b s f f p a + ! %.z b c k c s k a b f + ",
"` 3 7 q 7 : < / ~ q q 1 : q 8 : 8 q q [ ! ! ^ ' ^ r 3 , 7 r q 0 ",
"x.j.w.y.r.w.i.,.` G.j.l.d.j.t.z.a.9.y.y.r.y.d.f.h.k.Y ) ~.g.j.j.",
">.2.O.#.:.G 7.a 7 B.;.>.2.%.O.O.;.*.O.%.=.#.>.#.3.K * ] a.5.*.3.",
">.;.P %.=.G 1.a 7 S.&.>.;.%.m S 2.A >.K N $.>.J =.=.X ! y.5.&.%.",
"n s a v v a x y r W S b Z N c b B M c b z M b s M z . ) 3.z i n ",
"! 4 7 7 4 q < < ( ` t 5 5 5 e ! w r , : 4 q 6 : 9 q ! [ ^ 5 r q ",
"I.x.j.j.j.i.i.z.i.i.a.w.z.$.` I.l.R.j.c.j.h.2.y.6.r.y.r.r.y.7.h ",
"m.>.1.O.O.3.<.5.A =.2.A ;.v r P.w.=.$.#.3.=.#.K =.;.;.=.q.>.m + ",
"n.#.D O.O.=.K <.A <.$.A #.l r J.<.&.%.<.=.K m S G O.&.1.#.G F + ",
"E +.b z k b m N b f s v v y 3 C.S Z b b b m N v f v b v n l m + ",
" ./ r 7 7 3 r ' ! r ! 0 3 5 w { q 0 r r , , 6 _ r , 6 q 0 r q 0 ",
"f.f.h.h.k.Y / R.i.a.i.y.s.w.4.s.0.w.r.,.` H.j.a.z.i.u.r.w.y.r.w.",
"*.5.3.;.#.+ ` 6.5.>.;.&.2.K O.:.;.O.=.V _ L.&.=.2.;.7.*.=.;.=.#.",
"2.>.3.=.#.- { y.=.$.G -.:.#.S =.K $.<.v / K.>.3.&.2.%.>.;.3.@.#.",
"a M f v s * ' +.$.B m S M n c S n M M u q v.B S $.K K G Z B Z n ",
"r 0 7 7 7 3 ` r : 5 q / ! 1 : q q 0 7 7 ( { 0 r '  .w 1 q r 0 0 ",
"Z.g.g.i.i.p.r.6.0.r.y.0.0.s.4.,./ F.Y.i.i.y.y.7.2.r.w.9.r.0.y.h ",
"B.K ;.O.=.=.J =.L #.K S $.#.*.l 7 B.2.m #.m $.$.L &.#.=.*.;.K + ",
"N.;.2.$.#.,.=.K Z L -.$.#.,.#.v < S.$.;.G L +.G S K %.#.;.;.O.+ ",
"R Z Z N G Z b B x c p l n n n d 4 C.S m Z c S v b v n n n n x + ",
"/ 0 r r q r  .! 4 8 r 2 : 6 q 4 ~ / r q q 5 9 ) ! 8 q > ; 1 q r ",
"d.y.r.7.r.a.0.r.,.( D.Y.z.i.r.i.0.0.p.0.0.7.<.Y [ W.e.y.w.w.0.w.",
">.K =.L O.Z #.G k q M.%.=.m G $.&.K +.#.A #.S &  .6.$.=.>.*.G C ",
"&.$.Z K =.&.C =.s q m.D &.=.G G L K N G *.b Z + { i.G >.#.K +.=.",
"&.K B G K Z $.O.x q V.D =.G A H K B G <.K K C + ! 4.M B =.=.B +.",
"$ $ $ $ $ $ $ $ + q Q = & # $ $ $ $ $ @ o o O   ` h # $ @ o o $ ",
"| | _ [  . .o.[  .X.o.o. .X. .X. .[  .' ' _ } ' .. .|  . .' }  ."
};
